/* XPM */
static char *_660923925792[] = {
/* columns rows colors chars-per-pixel */
"192 48 10 1 ",
"  c black",
". c #38002C",
"X c #222A5C",
"o c #158968",
"O c #663B93",
"+ c #566A89",
"@ c #5BECF1",
"# c #8BABBF",
"$ c #FFDBA5",
"% c None",
/* pixels */
"%%%%%%%%%%%%%%%%%%%%%%%%%%%%%%%%%%%%%%%%%%%%%%%%%%%%%%%%%%%%%%%%%%%%%%%%%%%%%%%%%%%%%%%%%%%%%%%%%%%%%%%%%%%%%%%%%%%%%%%%%%%%%%%%%%%%%%%%%%%%%%%%%%%%%%%%%%%%%%%%%%%%%%%%%%%%%%%%%%%%%%%%%%%%%%%%",
"%%%%%%%%%%%%%%%%%%%%%%%%%%%%%%%%%%%%%%%%%%%%%%%%%%%%%%%%%%%%%%%%%%%%%%%%%%%%%%%%%%%%%%%%%%%%%%%%%%%%%%%%%%%%%%%%%%%%%%%%%%%%%%%%%%%%%%%%%%%%%%%%%%%%%%%%%%%%%%%%%%%%%%%%%%%%%%%%%%%%%%%%%%%%%%%%",
"%%%%%%%%%%%%%%%%%%%%%%%%%%%%%%%%%%%%%%%%%%%%%%%%%%%%%%%%%%%%%%%%%%%%%%%%%%%%%%%%%%%%%%%%%%%%%%%%%%%%%%%%%%%%%%%%%%%%%%%%%%%%%%%%%%%%%%%%%%%%%%%%%%%%%%%%%%%%%%%%%%%%%%%%%%%%%%%%%%%%%%%%%%%%%%%%",
"%%%%%%%%%%%%%%%%%%%%%%%%%%%%%%%%%%%%%%%%%%%%%%%%%%%%%%%%%%%%%%%%%%%%%%%%%%%%%%%%%%%%%%%%%%%%%%%%%%%%%%%%%%%%%%%%%%%%%%%%%%%%%%%%%%%%%%%%%%%%%%%%%%%%%%%%%%%%%%%%%%%%%%%%%%%%%%%%%%%%%%%%%%%%%%%%",
"%%%%%%%%%%%%%%%%%%%%%%%%%%%%%%%%%%%%%%%%%%%%%%%%%%%%%%%%%%%%%%%%%%%%%%%%%%%%%%%%%%%%%%%%%%%%%%%%%%%%%%%%%%%%%%%%%%%%%%%%%%%%%%%%%%%%%%%%%%%%%%%%%%%%%%%%%%%%%%%%%%%%%%%%%%%%%%%%%%%%%%%%%%%%%%%%",
"%%%%%%%%%%%%%%%%%%%%%%%%%%%%%%%%%%%%%%%%%%%%%%%%%%%%%%%%%%%%%%%%%%%%%%%%%%%%%%%%%%%%%%%%%%%%%%%%%%%%%%%%%%%%%%%%%%%%%%%%%%%%%%%%%%%%%%%%%%%%%%%%%%%%%%%%%%%%%%%%%%%%%%%%%%%%%%%%%%%%%%%%%%%%%%%%",
"%%%%%%%%%%%%%%%%%%%%%%%%%%%%%%%%%%%%%%%%%%%%%%%%%%%%%%%%%%%%%%%%%%%%%%%%%%%%%%%%%%%%%%%%%%%%%%%%%%%%%%%%%%%%%%%%%%%%%%%%%%%%%%%%%%%%%%%%%%%%%%%%%%%%%%%%%%%%%%%%%%%%%%%%%%%%%%%%%%%%%%%%%%%%%%%%",
"%%%%%%%%%%%%%%%%%%%%%%%%%%%%%%%%%%%%%%%%%%%%%%%%%%%%%%%%%%%%%%%%%%%%%%%%%%%%%%%%%%%%%%%%%%%%%%%%%%%%%%%%%%%%%%%%%%%%%%%%%%%%%%%%%%%%%%%%%%%%%%%%%%%%%%%%%%%%%%%%%%%%%%%%%%%%%%%%%%%%%%%%%%%%%%%%",
"%%%%%%%%%%%%%%%%%%%%%%%%%%%%%%%%%%%%%%%%%%%%%%%%%%%%%%%%%%%%%%%%%%%%%%%%%%%%%%%%%%%%%%%%%%%%%%%%%%%%%%%%%%%%%%%%%%%%%%%%%%%%%%%%%%%%%%%%%%%%%%%%%%%%%%%%%%%%%%%%%%%%%%%%%%%%%%%%%%%%%%%%%%%%%%%%",
"%%%%%%%%%%%%%%%%%%%%%%%%%%%%%%%%%%%%%%%%%%%%%%%%%%%%%%%%%%%%%%%%%%%%%%%%%%%%%%%%%%%%%%%%%%%%%%%%%%%%%%%%%%%%%%%%%%%%%%%%%%%%%%%%%%%%%%%%%%%%%%%%%%%%%%%%%%%%%%%%%%%%%%%%%%%%%%%%%%%%%%%%%%%%%%%%",
"%%%%%%%%%%%%%%%%%%%%%%%%%%%%%%%%%%%%%%%%%%%%%%%%%%%%%%%%%%%%%%%%%%%%%%%%%%%%%%%%%%%%%%%%%%%%%%%%%%%%%%%%%%%%%%%%%%%%%%%%%%%%%%%%%%%%%%%%%%%%%%%%%%%%%%%%%%%%%%%%%%%%%%%%%%%%%%%%%%%%%%%%%%%%%%%%",
"%%%%%%%%%%%%%%%%%%%%%%%%%%%%%%%%%%%%%%%%%%%%%%%%%%%%%%%%%%%%%%%%%%%%%%%%%%%%%%%%%%%%%%%%%%%%%%%%%%%%%%%%%%%%%%%%%%%%%%%%%%%%%%%%%%%%%%%%%%%%%%%%%%%%%%%%%%%%%%%%%%%%%%%%%%%%%%%%%%%%%%%%%%%%%%%%",
"%%%%%%%%%%%%%%%%%%%%%%%%%%%%%%%%%%%%%%%%%%%%%%%%%%%%%%%%%%%%%%%%%%%%%%%%%%%%%%%%%%%%%%%%%%%%%%%%%%%%%%%%%%%%%%%%%%%%%%%%%%%%%%%%%%%%%%%%%%%%%%%%%%%%%%%%%%%%%%%%%%%%%%%%%%%%%%%%%%%%%%%%%%%%%%%%",
"%%%%%%%%%%%%%%  %%%%%%%%%%%%%%%%%%%%%%%%%%%%%%%%%%%%%%%%%%%%%%%  %%%%%%%%%%%%%%%%%%%%%%%%%%%%%%%%%%%%%%%%%%%%  %%%%%%%%%%%%%%%%%%%%%%%%%%%%%%%%%%%%%%%%%%%%%%  %%%%%%%%%%%%%%%%%%%%%%%%%%%%%%%%%",
"%%%%%%%%%  %%% o %%%%%%%%%%%%%%%%%%%%%%%%%%%%%%%%%%%%%%%%  %%% o %%%%%%%%%%%%%%%%%%%%%%%%%%%%%%%%%%%%%%%  %%% o %%%%%%%%%%%%%%%%%%%%%%%%%%%%%%%%%%%%%%%%%%%%% o %%%%%%%%%%%%%%%%%%%%%%%%%%%%%%%%",
"%%%%%%%%% o    oo %%%%%%%%%%%%%%%%%%%%%%%%%%%%%%%%%%%%%%% o   oo %%%%%%%%%%%%%%%%%%%%%%%%%%%%%%%%%%%%%%% o    oo %%%%%%%%%%%%%%%%%%%%%%%%%%%%%%%%%%%%%%%       o %%%%%%%%%%%%%%%%%%%%%%%%%%%%%%%",
"%%%%%%%%%% oooooo %%%%%%%%%%%%%%%%%%%%%%%%%%%%%%%%%%%%%%% oooooo %%%%%%%%%%%%%%%%%%%%%%%%%%%%%%%%%%%%%%%% oooooo %%%%%%%%%%%%%%%%%%%%%%%%%%%%%%%%%%%%%%% oooooooo %%%%%%%%%%%%%%%%%%%%%%%%%%%%%%",
"%%%%%%%%% ooooooo %%%%%%%%%%%%%%%%%%%%%%%%%%%%%%%%%%%%%% ooooooo %%%%%%%%%%%%%%%%%%%%%%%%%%%%%%%%%%%%%%% ooooooo %%%%%%%%%%%%%%%%%%%%%%%%%%%%%%%%%%%%%%%% ooooooo %%%%%%%%%%%%%%%%%%%%%%%%%%%%%%",
"%%%%%%%%% oo$$$$ %%%%%%%%%%%%%%%%%%%%%%%%%%%%%%%%%%%%%%% oo$$$$ %%%%%%%%%%%%%%%%%%%%%%%%%%%%%%%%%%%%%%%% oo$$$$ %%%%%%%%%%%%%%%%%%%%%%%%%%%%%%%%%%%%%%%%% oo$$$$ %%%%%%%%%%%%%%%%%%%%%%%%%%%%%%%",
"%%%%%%%%% o$ OO  %%%%%%%%%%%%%%%%%%%%%%%%%%%%%%%%%%%%%%% o$ OO  %%%%%%%%%%%%%%%%%%%%%%%%%%%%%%%%%%%%%%%% o$ OO  %%%%%%%%%%%%%%%%%%%%%%%%%%%%%%%%%%%%%%%%% o$ OO  %%%%%%%%%%%%%%%%%%%%%%%%%%%%%%%",
"%%%%%%%%%% $ OO  %%%%%%%%%%%%%%%%%%%%%%%%%%%%%%%%%%%%%%%% $ OO  %%%%%%%%%%%%%%%%%%%%%%%%%%%%%%%%%%%%%%%%% $ OO  %%%%%%%%%%%%%%%%%%%%%%%%%%%%%%%%%%%%%%%%%% $ OO  %%%%%%%%%%%%%%%%%%%%%%%%%%%%%%%",
"%%%%%%%%%  $$$$$  %%%%%%%%%%%%%%%%%%%%%%%%%%%%%%%%%%%%%%  $$$$$  %%%%%%%%%%%%%%%%%%%%%%%%%%%%%%%%%%%%%%%  $$$$$  %%%%%%%%%%%%%%%%%%%%%%%%%%%%%%%%%%%%%%%%  $$$$$  %%%%%%%%%%%%%%%%%%%%%%%%%%%%%%",
"%%%%%%%% ##+$$$$#+ %%%%%%%%%%%%%%%%%%%%%%%%%%%%%%%%%%%% ##+$$$$#+ %%%%%%%%%%%%%%%%%%%%%%%%%%%%%%%%%%%%% ##+$$$$#+ %%%%%%%%%%%%%%%%%%%%%%%%%%%%%%%%%%%%%% ##+$$$$#+ %%%%%%%%%%%%%%%%%%%%%%%%%%%%%",
"%%%%%%% ##########+ %%%%%%%%%%%%%%%%%%%%%%%%%%%%%%%%%% ##########+ %%%%%%%%%%%%%%%%%%%%%%%%%%%%%%%%%%% ##########+ %%%%%%%%%%%%%%%%%%%%%%%%%%%%%%%%%%%% ##########+ %%%%%%%%%%%%%%%%%%%%%%%%%%%%",
"%%%%%%% ##+###@@##+ %%%%%%%%%%%%%%%%%%%%%%%%%%%%%%%%%% ##+###@@##+ %%%%%%%%%%%%%%%%%%%%%%%%%%%%%%%%%%% ##+###@@##+ %%%%%%%%%%%%%%%%%%%%%%%%%%%%%%%%%%%% ##+###@@##+ %%%%%%%%%%%%%%%%%%%%%%%%%%%%",
"%%%%%% +++X+##@@#+X %%%%%%%%%%%%%%%%%%%%%%%%%%%%%%%%% +++X+##@@#+X %%%%%%%%%%%%%%%%%%%%%%%%%%%%%%%%%% +++X+##@@#+X %%%%%%%%%%%%%%%%%%%%%%%%%%%%%%%%%%% +++X+##@@#+X %%%%%%%%%%%%%%%%%%%%%%%%%%%%",
"%%%%% ++  XX++@@+X %%%%%%%%%%%%%%%%%%%%%%%%%%%%%%%%% ++  XX++@@+X %%%%%%%%%%%%%%%%%%%%%%%%%%%%%%%%%% ++  XX++@@+X %%%%%%%%%%%%%%%%%%%%%%%%%%%%%%%%%%% ++  XX++@@+X %%%%%%%%%%%%%%%%%%%%%%%%%%%%%",
"%%%% ## % X++XXXX+ %%%%%%%%%%%%%%%%%%%%%%%%%%%%%%%% ## % X++XXXX+ %%%%%%%%%%%%%%%%%%%%%%%%%%%%%%%%% ## % X++XXXX+ %%%%%%%%%%%%%%%%%%%%%%%%%%%%%%%%%% ## % X++XXXX+ %%%%%%%%%%%%%%%%%%%%%%%%%%%%%",
"%%%% ## % X++++X++ %%%%%%%%%%%%%%%%%%%%%%%%%%%%%%%% ## % X++++X++X %%%%%%%%%%%%%%%%%%%%%%%%%%%%%%%% ## % X++++X++ %%%%%%%%%%%%%%%%%%%%%%%%%%%%%%%%%% ## % X++++X++ %%%%%%%%%%%%%%%%%%%%%%%%%%%%%",
"%%%% + %%% X+++X+X %%%%%%%%%%%%%%%%%%%%%%%%%%%%%%%% + %%% X+++X+XX %%%%%%%%%%%%%%%%%%%%%%%%%%%%%%%% + %%% X+++X+X %%%%%%%%%%%%%%%%%%%%%%%%%%%%%%%%%% + %%% X+++X+X %%%%%%%%%%%%%%%%%%%%%%%%%%%%%",
"%%% + %%%% XXXXXX X %%%%%%%%%%%%%%%%%%%%%%%%%%%%%%% + %%% XXXXXX X %%%%%%%%%%%%%%%%%%%%%%%%%%%%%%% + %%%% XXXXXX X %%%%%%%%%%%%%%%%%%%%%%%%%%%%%%%% + %%%% XXXXXXX %%%%%%%%%%%%%%%%%%%%%%%%%%%%%",
"%%% + %%%%% XXXX  X %%%%%%%%%%%%%%%%%%%%%%%%%%%%%%% + %%%% XXXX   X %%%%%%%%%%%%%%%%%%%%%%%%%%%%%% + %%%%% XXXX  X %%%%%%%%%%%%%%%%%%%%%%%%%%%%%%%% + %%%%% XXXX X %%%%%%%%%%%%%%%%%%%%%%%%%%%%%",
"%%% #   %%%% .. % X %%%%%%%%%%%%%%%%%%%%%%%%%%%%%%% #   %%% .. %  X %%%%%%%%%%%%%%%%%%%%%%%%%%%%%% #   %%%% .. % X %%%%%%%%%%%%%%%%%%%%%%%%%%%%%%% #   %%%%% ..   X %%%%%%%%%%%%%%%%%%%%%%%%%%%%",
"%%% ### %%%  ..   XX %%%%%%%%%%%%%%%%%%%%%%%%%%%%%% ### %%  ..   XXX %%%%%%%%%%%%%%%%%%%%%%%%%%%%% ### %%%  ..   XX %%%%%%%%%%%%%%%%%%%%%%%%%%%%%% ### %%%%  ..   X %%%%%%%%%%%%%%%%%%%%%%%%%%%%",
"%%% ## %%% ##+++++XX %%%%%%%%%%%%%%%%%%%%%%%%%%%%%% ## %% ##+++++ XX %%%%%%%%%%%%%%%%%%%%%%%%%%%%% ## %%% ##+++++XX %%%%%%%%%%%%%%%%%%%%%%%%%%%%%% ## %%%% ##+++++X %%%%%%%%%%%%%%%%%%%%%%%%%%%%",
"%%%% # %% ###+++XXX  %%%%%%%%%%%%%%%%%%%%%%%%%%%%%%% # % ###+++XXX   %%%%%%%%%%%%%%%%%%%%%%%%%%%%%% # %% ###+++XXX  %%%%%%%%%%%%%%%%%%%%%%%%%%%%%%% # %%% ###+++XXX %%%%%%%%%%%%%%%%%%%%%%%%%%%%",
"%%%%%  %% ##+++XXXX %%%%%%%%%%%%%%%%%%%%%%%%%%%%%%%%%  % ##+++XXXX %%%%%%%%%%%%%%%%%%%%%%%%%%%%%%%%%  %% ##+++XXXX %%%%%%%%%%%%%%%%%%%%%%%%%%%%%%%%%  %%% ##+++XXXX %%%%%%%%%%%%%%%%%%%%%%%%%%%%",
"%%%%%%%%% +++X  XXX %%%%%%%%%%%%%%%%%%%%%%%%%%%%%%%%%%%% +++X  XXX %%%%%%%%%%%%%%%%%%%%%%%%%%%%%%%%%%%%% +++X  XXX %%%%%%%%%%%%%%%%%%%%%%%%%%%%%%%%%%%%%% +++X  XXX %%%%%%%%%%%%%%%%%%%%%%%%%%%%",
"%%%%%%%%% +++ % XXX %%%%%%%%%%%%%%%%%%%%%%%%%%%%%%%%%%%% +++ % XXXX %%%%%%%%%%%%%%%%%%%%%%%%%%%%%%%%%%%% +++ % XXX %%%%%%%%%%%%%%%%%%%%%%%%%%%%%%%%%%%%%% +++ % XXX %%%%%%%%%%%%%%%%%%%%%%%%%%%%",
"%%%%%%%%% +++ % XXX %%%%%%%%%%%%%%%%%%%%%%%%%%%%%%%%%%%% +++ %% XXX %%%%%%%%%%%%%%%%%%%%%%%%%%%%%%%%%%%% +++ %% XXX %%%%%%%%%%%%%%%%%%%%%%%%%%%%%%%%%%%%% +++ % XXX %%%%%%%%%%%%%%%%%%%%%%%%%%%%",
"%%%%%%%%% ### %% XXX %%%%%%%%%%%%%%%%%%%%%%%%%%%%%%%%%%% ### %% XXX %%%%%%%%%%%%%%%%%%%%%%%%%%%%%%%%%%%% ### %% XXX %%%%%%%%%%%%%%%%%%%%%%%%%%%%%%%%%%%%% ### %% XXX %%%%%%%%%%%%%%%%%%%%%%%%%%%",
"%%%%%%%%% ## %%% XXX %%%%%%%%%%%%%%%%%%%%%%%%%%%%%%%%%%% ### %% XXXX %%%%%%%%%%%%%%%%%%%%%%%%%%%%%%%%%%% ### %% XXX %%%%%%%%%%%%%%%%%%%%%%%%%%%%%%%%%%%%% ## %%% XXX %%%%%%%%%%%%%%%%%%%%%%%%%%%",
"%%%%%%%%% ++ %%% XXX %%%%%%%%%%%%%%%%%%%%%%%%%%%%%%%%%%% ++ %%%% XXX %%%%%%%%%%%%%%%%%%%%%%%%%%%%%%%%%%% ++ %%%% XXX %%%%%%%%%%%%%%%%%%%%%%%%%%%%%%%%%%%% ++ %%% XXX %%%%%%%%%%%%%%%%%%%%%%%%%%%",
"%%%%%%%% XXX %%% XXX %%%%%%%%%%%%%%%%%%%%%%%%%%%%%%%%%%% XX %%%% XXX %%%%%%%%%%%%%%%%%%%%%%%%%%%%%%%%%%% XX %%%% XXX %%%%%%%%%%%%%%%%%%%%%%%%%%%%%%%%%%% XXX %%% XXX %%%%%%%%%%%%%%%%%%%%%%%%%%%",
"%%%%%%%% XXX %%%% XX %%%%%%%%%%%%%%%%%%%%%%%%%%%%%%%%%%% XX %%%%% XX %%%%%%%%%%%%%%%%%%%%%%%%%%%%%%%%%%% XX %%%% XXX %%%%%%%%%%%%%%%%%%%%%%%%%%%%%%%%%%% XXX %%%% XX %%%%%%%%%%%%%%%%%%%%%%%%%%%",
"%%%%%%%% XX %%%%% XX %%%%%%%%%%%%%%%%%%%%%%%%%%%%%%%%%%% XX %%%%% XX %%%%%%%%%%%%%%%%%%%%%%%%%%%%%%%%%%% XX %%%%% XX %%%%%%%%%%%%%%%%%%%%%%%%%%%%%%%%%%% XX %%%%% XX %%%%%%%%%%%%%%%%%%%%%%%%%%%",
"%%%%%%%% .. %%%%%     %%%%%%%%%%%%%%%%%%%%%%%%%%%%%%%%%% .. %%%%%     %%%%%%%%%%%%%%%%%%%%%%%%%%%%%%%%%% .. %%%%%     %%%%%%%%%%%%%%%%%%%%%%%%%%%%%%%%%% .. %%%%%     %%%%%%%%%%%%%%%%%%%%%%%%%%",
"%%%%%%%% .. %%%%%     %%%%%%%%%%%%%%%%%%%%%%%%%%%%%%%%%% .. %%%%%     %%%%%%%%%%%%%%%%%%%%%%%%%%%%%%%%%% .. %%%%%     %%%%%%%%%%%%%%%%%%%%%%%%%%%%%%%%%% .. %%%%%     %%%%%%%%%%%%%%%%%%%%%%%%%%"
};
