/* XPM */
static char *_661124454444[] = {
/* columns rows colors chars-per-pixel */
"48 48 35 1 ",
"  c black",
". c #0F0A16",
"X c #110916",
"o c #130C1A",
"O c #17101E",
"+ c #19111E",
"@ c #1D1523",
"# c #1E1826",
"$ c #1D1728",
"% c #1F1A2B",
"& c #201725",
"* c #221926",
"= c #241D2B",
"- c #291F2E",
"; c #251F30",
": c #2B1F30",
"> c #2D2924",
", c #27202F",
"< c #29212E",
"1 c #252031",
"2 c #2E2433",
"3 c #2F2836",
"4 c #312635",
"5 c #322937",
"6 c #342B3A",
"7 c #392F3E",
"8 c #3A313E",
"9 c #6C000A",
"0 c #3B3240",
"q c #423846",
"w c #544D43",
"e c #901520",
"r c #AF2531",
"t c #DF0023",
"y c #817667",
/* pixels */
"o@##@#@@@@@@@@@@@##@@=@+O@@@@@$@@@@@@@@@@@@@&=@+",
"o*676666666566666565662*@276565566666666666576-@",
"X-0q0888887788888888002**6q0780080878888070006=@",
"X-062122<222222<<2232;**=40:<2222224222222254<*o",
"X=74<<<22<2222::<<<<2=*@*56:-12--2<<2-2-1<-:4=@+",
"X-75222222222222232422**=56:<2442242424244245-*@",
"X-0522222222222224554-=**66:-22242222222222442*@",
"X-0524224222224224554<-**672-4222222422224<54-@@",
"X-85222222244222222542=*=56-222242424-24222242*+",
"X-0522242222222222255<*@=674-422<4<4442245454<*+",
".-0324222222222522225 *+*58<  42<424<42424254<&@",
".-742222242222224523 w @=5  ww 244<:554:22245<&&",
"X-632222222242222 25 >w = wwwyy 44<4786::2244<&&",
"X=75222242222222 w   >ww wwwwwyy 542664222245:&+",
"X-852-222222242  y>>wwyy>ww>>>wyy 22224222255:&+",
"X-851224224222 >wywwyyyw>w>wwwwwyy 2222442225-&O",
"X=85<424222222 >wwwyyyw9t>>www>wwy 4445522254-*@",
"X-854<44422232 >>wwwwyw99>w>wwy>wwy <22422225:*@",
"X,86<4<4222222  >>w9twy>>>> >wwy>wy 42224<224-*@",
".=86444445455 >www>99wwww>   >wy>wyy 54444455<*+",
"X-6522244555 www>>>>>wwyy>   >ww>wwy 555445552&@",
"o<6-**==**= www>www >wyyy   9  ww>wy 22<2:244<&@",
"o,51=,,,--- wwwwwww> >ww wy e9 ww www ======--*@",
"o&12,,,<-;, wwywwyw>     wy re ww  ww @@&&@@@**@",
"o+@*%@##*@@ wwy>wyy>  yw> w   9 w  ww *#*****$+@",
"o&22<<<<<-2 wwy>>wyy  ywy   12 9 w ww 5222<23-@o",
"X<085556666 wwy> >wy 9  y >> 5 e w  w 66646662*@",
"X<052<42252 wwyy> >ww 9e >>ww 4  w  ww 2222452*+",
"X-75<2222222 wwy>  >ww r  >>wy 2 w  ww -22242:*@",
"X-8522224222 wwyy 9 >ww -5 >>w 2 w  ww <22245-*@",
"X-85222222223 wwyw 9  ww 56 >y 22 2 ww 322245-*@",
"X=852242223222 wyyw 99 ww 62 w 2222 w 42222432=+",
"X-852222222424 wwyy 9e9 w 62 >y 3222 25222444<=+",
"X-8522242222222  www  er 562 >w 22225224<1<44<*O",
".-052432222244321 wwww  =5622 >y    22254<2452*+",
"X-052222422554<<23  wwww 56222 >wywy 2224<<552*+",
"X=05222222562*=66:44    =56::44     522222242:=@",
"X-042222225<@*<55::55:=&=572:42223222222422<:-&+",
"X-76:-22452*&-5242244-***5622422224222222224<-+&",
"X-752-22454<4442222442=&=36422222222222422454-+@",
"X=752<422224442222442<=&=40:22222242422222254=@=",
"X-0642442:244242222452=*=66::2222222222222242-*=",
"X=86544435454544545554**=46::2224222222422255<&*",
".-752<222<:22-2222234=*&=40425555445455555455-&&",
"o,82<12<22222222222<1--=-50223222<42224<322452*@",
"o<821122<1,1-<<<<1,<2332;32=*-<<-<<<<1<<--:;-<**",
".$1%%,,%===;;=====-==;-$@*%$@#$$##@#$*$@$$@$%;*@",
"oo@@OO@##@@@@#*@**@&*=*&+&*==*#@#@*=*$@@@@@**+O@"
};
