/* XPM */
static char *_661093803104[] = {
/* columns rows colors chars-per-pixel */
"48 48 52 1 ",
"  c #0B050F",
". c #0C0612",
"X c #0E0914",
"o c #110A16",
"O c #140D1A",
"+ c #180F1D",
"@ c #17111D",
"# c #19111E",
"$ c #1D1522",
"% c #1E1825",
"& c #201725",
"* c #211926",
"= c #251C2A",
"- c #281F2D",
"; c #2A1F30",
": c #27202C",
"> c #2A212E",
", c #2D2432",
"< c #312735",
"1 c #322936",
"2 c #312738",
"3 c #362B39",
"4 c #392E3C",
"5 c #3B313E",
"6 c #3C2F40",
"7 c #3D3342",
"8 c #3F3549",
"9 c #413545",
"0 c #443846",
"q c #433548",
"w c #463A4B",
"e c #493C4D",
"r c #473D51",
"t c #4B3E52",
"y c #4C404F",
"u c #4E4152",
"i c #524355",
"p c #554659",
"a c #5B475D",
"s c #56495A",
"d c #5A4A5D",
"f c #5D4D62",
"g c #5F5063",
"h c #604F64",
"j c #615065",
"k c #66546A",
"l c #69566D",
"z c #6A586E",
"x c #6C5770",
"c c #695971",
"v c #715D76",
"b c #7A627E",
/* pixels */
"+@$*%$%===&=**%%====&&%%&&&&%$#&$*%$$%$&&$&&%%@X",
"+$:7wrrrtttttttttrr8878wrtrww888wertrrrtrrrrw5*@",
"+$,ikjpuiiiipppptw86579qttteqq8qeiiippttttupds4+",
"O$,uji>$#$$&%**%$Ooo##$$$$$$$$$$#&*===&$$&,3ei3#",
"O#<yje&XOoOO@OoXXO$&=;---=*&&&&$##OoO@#@oo#>0i4O",
"O@>ejt&@=====#o@;qweettee9412222<<-#O$::=$#<yi1@",
"OO,ygy%%<11<-#@:ejkhapitw7555544555,##:<2:=<ei3O",
"O@>yge%&454>#$3yfkkkfte9754455555555>=&,3>*<0s3@",
"O@>yge$*501$O-9iieihd0334344140051455-#-1,*,0s3O",
"O@<yge$*501#@=<3114ps01<454335ey01131-#&11*,ys3@",
"o#>yge#*501@o#<9e947et9334553350e005<&@&,1*,es3@",
"O@<ygy%*50>OO>illde99e0333331140yyew5-@#:,*,yi3O",
"o@,yje$*50*O<avvjdhde5753343<3ydy55005-@->*1es3@",
"o@<yjw#*53$-ijae323idi9434115djy<::<90<#&:$1es4O",
"@@<ujw#:4>$1fu,$@#$-wsi53311pxu>#%%=<55*$=*1ys4O",
"o@,uje&=1:$1e4$#$&$$&5055347fp*#&&&&=31****1es3O",
"O@<tge$*1-$=93&$*==$$&25559uu,O@===&=<1&#==1ea5O",
"o@<yjy$:42$&47>&&===&$*4ew0y1&&*==&=>,,&&*&1ys4O",
"o@1yj0%*45-$>43&$*=-&$$1dd0<&$*=-=&=>,:****1ed1O",
"o@<yjy#*552$+25>$$$*$O#9lly>##&*&$$>51*=::&,ed4O",
"o@,uje$*503&o;q4>$$$+o=tkgw<=&$%$&=39,$=,>*>yj9O",
"O@<yje#*501&&4ie93,*$%9ka0341>===,597:$*1>*,ul9O",
"O#,uj0$*50>#1alhiw9227kk5&=3557555509,$%11&>uz0O",
"X#,ugy#*50>#<hblpiu90dke*@&>500weeyyw<$%>>*>uz5O",
"O@<uge$%501@O9lhaie46te1*=:*,5350phd0>#*,,*>tk7O",
"O@,ufw#%503*o#155e00901&:,>*>555eiy9>&$*,,*>ukqO",
"@@,uje#*455>&OO#-<<495<,141,350555,&##=:,,*,ul9O",
"X@>ujy#*555,:*#O##+*13455557531:&-$+*==>1,%>uk9O",
"o#,ygw#*4551<=&O+#**=-<3,-,43:=*$#O+*=>13,&>uk8o",
"O@,ije#*45551-#&:40,=31-$+$=<>#&-*&$&=<55,$>ul9O",
"O@,yje%&35554=&1eda1<te;*-=#14$*,1<-$*<55,&>ul9O",
"O@,yjy#*45554&+9tah44xt,<61$10**131<##<55>&>uc9o",
"X@,uje#*45553:#1669,6je:4w7%17--<><>#%>55<&:il9o",
"o@,ujw#*45555,%#&%$$2i4*293%,4>======:155>$>ul9o",
"o@<uje#&355553:o=,&&,3>$*,=&>1:==>=#*>455>*:uxqO",
"OO,ujy#*555553*O2w2<1=,=$O$,-->==1>$:1555>*>ukqo",
"OO,uge$=500551%#4e<46-66OX*1>=<>-2-$=3005>%>ul9O",
"o@,ugw#$55554,*#1w942;24==,1>>><41-%:50w7<=>ucqO",
"o@,ujw+@:,:::*#@&>313964775,,>><1=##&-:>>=$:uxqX",
"o@,ujt$O#+OO@#@@. +<tapew74412><& XOOo  .X#=wxqX",
"X@,edw>:1<2<21471*$,9weq42222<<&$=<1>=*&**=:ezwo",
"O@,uffrrssddpsfkjptewqwwqqqwwq96waffspppppywdbwo",
"OO,pcvfgjgjjffjklzlkkfhjhhjkkkklxxllzzlxckkjlz9o",
"O@7kjw7855446447599q6979999969qq08699q998000ee2O",
"X=wp2O@++@++OO++OOOOOOOOOOOOOOOOOOO@OO+OOO+O$-*@",
"o3q*..oOOOOOOOOOOOOOOOOOOOOOOOOOOOOooooOOOOOO#$@",
"O&=o.OOOOoOOOOOoOOOOO++OO+OOoOOOOO@O+OOOOOO+OOOO",
"OoOO++++++++++++++++Oo+#++O+$O$$#######+++#O#$#+"
};
