/* XPM */
static char *_661093823993[] = {
/* columns rows colors chars-per-pixel */
"48 48 46 1 ",
"  c #07000D",
". c #09020F",
"X c #0D0613",
"o c #0F0915",
"O c #100716",
"+ c #110916",
"@ c #140C1A",
"# c #180F1E",
"$ c #17111E",
"% c #18101E",
"& c #1D1423",
"* c #1F1826",
"= c #211726",
"- c #211926",
"; c #241D2B",
": c #281F2E",
"> c #2A1F30",
", c #27202D",
"< c #29212F",
"1 c #2C2433",
"2 c #2F2836",
"3 c #2F2738",
"4 c #2F2838",
"5 c #302635",
"6 c #312936",
"7 c #322738",
"8 c #352B3B",
"9 c #392E3D",
"0 c #37303D",
"q c #3A313E",
"w c #3A2F41",
"e c #3D3342",
"r c #413645",
"t c #433946",
"y c #423649",
"u c #453B4B",
"i c #493E4E",
"p c #4A3E51",
"a c #4B404E",
"s c #4C4253",
"d c #4E4658",
"f c #504556",
"g c #524659",
"h c #53495A",
"j c #574B60",
"k c #65556D",
/* pixels */
"@@XXX@@@o.X%=-&$XXX+@@X XX......o+@@O@@XX ...oo@",
"@@@@@XXX+@-60ee91&+XoX+;26;$@%=%@@@@&#oXo;:;&$@o",
"X@&11*@X$,0afshhde&+Xo,tddy61eue;%@&;$+@8upiq2$X",
"X@1ei7#X&60eissdfr;OX$8sssurrifs0;&&*ooeddpda0%o",
".%6tae;+&3880qeer8-++&esiitrtsdse,*$X+6sfiusa4%.",
".&9erq0%+*1412466;&@@<qiuurreaiu8;&$.<asuyiie2%.",
".=9qqtt,X+;621162,*+@1qtreeqtpdr2;&&;rsiuise2,&@",
"X-0qqqt6@X*2822471*@%1qtee00rise<*&&8isiusi912;$",
".=qeerq5%X%<808891&@@;800860rtt8:-%=qassaat618,+",
"X=9ttr9:@X+;38886,$+@=,21<<1802,=&@=0aiitr6516=X",
"O%:qq9<=+..+&&&&$@+XO@$%%%$%=%$$@@+@%,,-;=&%=<&X",
"+&;151-@@&=&#@@@&@.O@+++++@+++o+++++++o++XoX&<&o",
"+&<<,-%@=qsspuuuy3++%$$+@$==%$$$+@@@&%&&%+@#-1-o",
"+#-1<-@O=0tispuuse&@&&%$@%%%%%$@#@@%%%&;&@@%,8;+",
"#+#-:%@@=<117w42ey&@%%@@@@@+@@@@@@#@%%%=&@+%,0,o",
"#@@@@@@=<<111111ew=@+@+++@+O+@@@%@@@@##%@@@#-5,o",
"@@@XXX+;1121<3<<wy&@*1w>#@;7>#@@@&@@@@@&@@@@=<-+",
"@@@+@@+&431434<<wu&@>epy8;>ew>@+@&&@@@@@@@@@=1;@",
"@O+&**@&141113<<8d&@;<;wpy>;83@@&##&&@@@@@@@=1-o",
"@X&<e1o&111311<<8p*@*;*;www=;:@@@@@@@@@@@@@@%-%+",
"@X&es9@&111144<<8p;@&:<*&17>;&@+#######@@@@@@+@+",
"OO:ud8@$2341<4<<7u=@&:<:;;>13;@@&:111>>;#@@++@@O",
"o+1is8+&1411121,wy=@*1<<<:;>ww>#&:>11>>3;@@+@@@@",
"X+<ip1+&113124,,8w&#&<<:<<;*8y>%#=;;;&*>;@@++@@+",
"++1tt<@&411121,,ww#@*,<,:<,*48*#@*;;***>-#@O@$@+",
"@@1ee,@&1141142,ww*@*,>,<<,*24&@&;;;;***-#+@-6,o",
"X&226;@&1433<<<;3w*#*;,><>><71&@&;;;;*;;-#@+<t2o",
"X&71<;@*<31<<;*&*;&#*>,,<;<w8=@@&;;;;;;;=#++;0;X",
"X&6;:-@=33,4ww>331#@*>,><;<38;++&:;;;;;;;#@o&7;X",
"X&1<<-$&,3<4eywwpw@@*>,><<<<31@@&;,;;=;;-#@+*2;o",
"X%,<<;%&,311www3ew@@;><;<<::37@@*::;;*;;;#@O-8,@",
"+@;:1<%&>11>>>>=ww@@,><><<::79#@&::;;;;;;&@+-6,o",
"+@:,1;%&;111717wiw@@;:::,<;;8e%@*;:;;>*;&&+O*3;X",
"X@;1,*%$=1wwe8ejkt.+;:;;:,;;8e&@*>:;;,,*$+@@*w;+",
"oo-71&@@:uddieegf5O$,;;;:<;;9e#@*>:;*;<>*@O+*4;+",
"+X%12;@@:euye1,1-%@%;:;;:,:-7w#@*<;>>;;w>#OO*w;o",
"@XX@:1%+@&&@@@@o+@#&-;;;-;&*77@@;>>>;**<:&oX*8,+",
"@XoX@&@@+X.XX.XXX++@@#%%&$@@&&@@$&&&&&&&&@X@,3*+",
"@@&&&@++@@@@$@@@%@+@@%@$@@#&&*;*&**&oo+Xo@$,2,&X",
"X@198-XX@&&*;,111;&&1riueuiuyeuewepe*@oX#:20w1&X",
"+%5qtq-@@&;1799985560usddffataaassha,@XX&10qt0=o",
"+-16qte<&&;6eww889euuruiitq00qiaiast<#O@;10etr,+",
"+=15qttt1@%<8w4460iapspie6<,<8qreatq1%+@&18qtr,o",
"+;6<<50e8-@&*<;*;6qtrre91--&%,6890666-+#:72661-#",
"+=66111800:$&&**,<66681<,<86<<<111,,1=++,66165,%",
"+#,0w8478w8:+@*461<<<5<1<tair6611111;%++%<q80t1$",
"@+@=;<<,<1,&@o&;,;--;;;:,261<,,-,;;&#+#++%;,<1-@",
"+++.o@&*&&&@ooX@#&====--&%ooo$#%%%$@++#@+o+@%%+X"
};
