/* XPM */
static char *_661118918570[] = {
/* columns rows colors chars-per-pixel */
"48 48 29 1 ",
"  c #0F0A16",
". c #110916",
"X c #130C1A",
"o c #180F1D",
"O c #17101E",
"+ c #19111E",
"@ c #1D1523",
"# c #1E1826",
"$ c #1D1728",
"% c #1F1A2B",
"& c #201724",
"* c #211926",
"= c #241C2B",
"- c #291F2D",
"; c #251F30",
": c #2B1F30",
"> c #27212E",
", c #29212E",
"< c #252031",
"1 c #2E2433",
"2 c #2F2836",
"3 c #312635",
"4 c #322937",
"5 c #322738",
"6 c #352B3A",
"7 c #392F3E",
"8 c #3A313E",
"9 c #3B3241",
"0 c #423846",
/* pixels */
"X@##@#@@@@@@@@@@@@#@#*#OX#*@@##@@@@@@@@@@@@@@=@+",
"X*676666646626662646661$#176544466666666646676-@",
".-909889787788888888971**607788888878898899996-@",
".-96,<111111111111121:*#=563-1111111111111123-#+",
".-73,,11-1111--1,,,,,-**=45---1-,1,11,1,:1-1:-#X",
".-7411111111131112122:**=47-11111131113111144-#+",
".-9411114111111111663-=*=47-:11111111311111141#@",
" -95111111113111,3443,-**47-11121311111111123:#@",
" -84111131111113,3233,-*=47--1113,33,313113331&+",
".-9421111131131131,36,&&-471:3133,,3,31113331,=+",
" -751111311111133,1332&+*66,:1111333313331334,&@",
" -7211111111111134,333*@=461111113,,343,11133,&&",
".-6411111111111133,44:=&=561:1,11113786,11133,&&",
" -7411111113311131133:=&=56111,111114641111331&+",
" -74,-111111111111333-=&=47:11113111131311133,*+",
" -8511113111111331113:=&=461:1111111113311133-&+",
".>841131113,31,2131331*&*47111111111113333133-&@",
".,84,1133113,1311,,311=&-661-12111311133,1,34-&&",
" -83113111113111113131=#*46,::111111111111133-*@",
" =8834333343433344444,=#*681111433333333313441*+",
".>7213133333111213333-=&-672143344333443334441*@",
".,5-&&=*=*===*-*=*=*-===>561,1111,111-3,11,34,&@",
"X-6,=>,>>,,>>,--,,=--,,>*,,*#-=->==========,-,*&",
"X#>1>>>,=>>,,-----,=-,>&@#*@@&@@&&&&@@#@@&&+&*&+",
"XO@#%###*##&&&&&&&&**#@oX+***#*&@+**@&****#**#@+",
"X#11,,,,-----=--=---:=*@@,411114,@*3441211141-@X",
".,97443447444444444661=*-69434478,,69976454661*@",
".,94,,331333333333144,=**661,1114841761:121341*o",
".-74,,3,11113--313-31-=**47--1,,37644,---1131:*$",
".-9433331111133,3,134:=*=47,,333-34741,,13,34:*@",
".-74,3,31111111331133-*#=463-1113,,3441311333-$@",
" -7433,331111313,1133:=*=4631311:33-3431111341*@",
".-7211113113111311144:=*=151111111111151:1143,=o",
".-843111111111131:155:=*=46111111311111411113,*+",
" -94113113113311:1134:=*=4611131111311141,1311*+",
" -941111111443,,31133-**=56111111111111111<241*@",
".-86111111461*-451133-=**56111113141111331,11:*@",
" -85:111113,#&,451133-=&=56:11111111111112111-&@",
" -751-11341*&-41131331=&=671:113131111311113,-+@",
".=95-1113411441111113-=&=26113111111111131343-+@",
".-94,,231113331111114-=&*37111111111111111133=@=",
".=96413111133131113341=*=371:1111131131111133-&=",
".=86433311443333444641=*=561:3111111111111,331&*",
" -741,1111,11,111,113=&&=56314443434444444444,&&",
".<82<111111111,111111,-==69:112113,3111112113,*@",
".171>1<,>>1<-1,,<1>,,221;23==----,,,,,,,,:;--1=*",
"X$;$%%%>%>%;=====%=*=;-$#=%$@$$$##@#$$#@@$#$$;#@",
"X.@@@O@#@@@@#*#$**##-*&&+&*&***##****@$$#@#**oo@"
};
