/* XPM */
static char *_661090920226[] = {
/* columns rows colors chars-per-pixel */
"48 48 148 2 ",
"   c #151516",
".  c #1E1E18",
"X  c #2C2A15",
"o  c #383616",
"O  c #413F0A",
"+  c #434007",
"@  c #494500",
"#  c #4D4801",
"$  c #45420C",
"%  c #4D4A0C",
"&  c #504C00",
"*  c #575203",
"=  c #5B5603",
"-  c #56520A",
";  c #5A560B",
":  c #5D590B",
">  c #524F17",
",  c #575416",
"<  c #595616",
"1  c #5D5A15",
"2  c #555218",
"3  c #635D00",
"4  c #635E0E",
"5  c #625E14",
"6  c #666106",
"7  c #6B6400",
"8  c #6E6806",
"9  c #66620B",
"0  c #6A650E",
"q  c #6F690A",
"w  c #746D03",
"e  c #786F00",
"r  c #756E0E",
"t  c #7C7400",
"y  c #76700F",
"u  c #7B740D",
"i  c #7F780C",
"p  c #656113",
"a  c #6B6612",
"s  c #6E6912",
"d  c #67631A",
"f  c #726C11",
"g  c #736E1A",
"h  c #777112",
"j  c #75701A",
"k  c #7D7719",
"l  c #7F791F",
"z  c #6B6724",
"x  c #6F6B2D",
"c  c #716C20",
"v  c #797421",
"b  c #7A773E",
"n  c #837A02",
"m  c #8B7F00",
"M  c #837C0C",
"N  c #847E1E",
"B  c #8C8302",
"V  c #8C8309",
"C  c #918500",
"Z  c #948A04",
"A  c #998E04",
"S  c #908708",
"D  c #918808",
"F  c #9C9104",
"G  c #8E8615",
"H  c #918913",
"J  c #9C9319",
"K  c #A29704",
"L  c #A69A02",
"P  c #A99D01",
"I  c #A09716",
"U  c #AEA200",
"Y  c #B2A600",
"T  c #B6A900",
"R  c #BBAD00",
"E  c #B5AA0F",
"W  c #B9AD0B",
"Q  c #BEB100",
"!  c #BFB30E",
"~  c #878126",
"^  c #8F8923",
"/  c #8C862B",
"(  c #938D29",
")  c #9C9526",
"_  c #A49D33",
"`  c #B6AD2E",
"'  c #ADA63A",
"]  c #B3AB34",
"[  c #B6AE3D",
"{  c #B7B03F",
"}  c #B9B23E",
"|  c #C2B400",
" . c #C7B900",
".. c #C9BA00",
"X. c #C2B611",
"o. c #C6BA15",
"O. c #C3BA31",
"+. c #CDC11D",
"@. c #D7CA23",
"#. c #DBCE25",
"$. c #E3D520",
"%. c #EEE12F",
"&. c #EFE232",
"*. c #FCEF37",
"=. c #A7A24C",
"-. c #BFB84B",
";. c #CAC24A",
":. c #D9D048",
">. c #D1CA5B",
",. c #E1D957",
"<. c #E0D85B",
"1. c #EAE04D",
"2. c #FFF643",
"3. c #FFFE4F",
"4. c #EAE15D",
"5. c #F0E655",
"6. c #F8ED5B",
"7. c #FFFF56",
"8. c #FFF65B",
"9. c #FFFF5D",
"0. c #D0CA72",
"q. c #D5D079",
"w. c #E3DB62",
"e. c #ECE361",
"r. c #FFFF65",
"t. c #FFFF6B",
"y. c #FFFF74",
"u. c #FFFF7F",
"i. c #989781",
"p. c #B5B38A",
"a. c #C1BD83",
"s. c #FFFF8B",
"d. c #EEE99F",
"f. c #FFFF91",
"g. c #FFFF9A",
"h. c #FFFFA1",
"j. c #F4F0B5",
"k. c #C6C8D5",
"l. c #E4E2C7",
"z. c #FFFFC1",
"x. c #FFFFC9",
"c. c #FBF8D7",
"v. c #FFFFD9",
"b. c #FFFFE1",
"n. c #FFFFEC",
"m. c #FFFFF4",
"M. c #FFFFFD",
"N. c None",
/* pixels */
"N.N.N.N.N.N.N.N.N.N.N.N.N.N.N.N.N.N.N.N.N.N.N.N.N.N.N.N.N.N.N.N.N.N.N.N.N.N.N.N.N.N.N.N.N.N.N.N.",
"N.N.N.N.N.N.N.N.N.N.N.N.N.N.N.N.N.N.N.N.N.N.N.N.N.N.N.N.N.N.N.N.N.N.N.N.N.N.N.N.N.N.N.N.N.N.N.N.",
"N.N.N.N.N.N.N.N.N.N.N.N.N.N.N.N.N.N.N.N.N.N.N.N.N.N.N.N.N.N.N.N.N.N.N.N.N.N.N.N.N.N.N.N.N.N.N.N.",
"N.N.N.N.N.N.N.N.N.N.N.N.N.N.N.N.N.N.N.N.N.N.N.N.N.N.N.N.N.N.N.N.N.N.N.N.N.N.N.N.N.N.N.N.N.N.N.N.",
"N.N.N.N.N.N.N.N.N.N.N.N.N.N.N.N.N.N.N.N.N.N.N.N.N.N.N.N.N.N.N.N.N.N.N.N.N.N.N.N.N.N.N.N.N.N.N.N.",
"N.N.N.N.N.N.N.N.N.N.N.N.N.N.N.N.N.N.N.N.N.N.N.N.N.N.N.N.N.N.N.N.N.N.N.N.N.N.N.N.N.N.N.N.N.N.N.N.",
"N.N.N.N.N.N.N.N.N.N.N.N.N.N.N.N.N.N.N.N.N.N.N.N.N.N.N.N.N.N.N.N.N.N.N.N.N.N.N.N.N.N.N.N.N.N.N.N.",
"N.N.N.N.N.N.N.N.N.N.N.N.N.N.N.N.N.N.N.N.N.N.N.N.N.N.N.N.N.N.N.N.N.N.N.N.N.N.N.N.N.N.N.N.N.N.N.N.",
"N.N.N.N.N.N.N.N.N.N.N.N.N.N.N.N.N.N.N.N.N.N.N.N.N.N.N.N.N.N.N.N.N.N.N.N.N.N.N.N.N.N.N.N.N.N.N.N.",
"N.N.N.N.N.N.N.N.N.N.N.N.N.N.N.N.N.N.: = = = : 4 N.N.N.N.N.N.N.N.N.N.N.N.N.N.N.N.N.N.N.N.N.N.N.N.",
"N.N.N.N.N.N.N.N.N.N.N.N.N.N.N.N.N.s ] a.p.] O.( 4 N.N.N.N.N.N.N.N.N.N.N.N.N.N.N.N.N.N.N.N.N.N.N.",
"N.N.N.N.N.N.N.N.N.N.N.N.N.N.N.N.= G r.m.M.f.y.5.k : N.N.N.N.N.N.N.N.N.N.N.N.N.N.N.N.N.N.N.N.N.N.",
"N.N.N.N.N.N.N.N.N.N.N.N.N.N.N.p w X.t.g.x.M.j.t.6._ 4 N.N.N.N.N.N.N.N.N.N.N.N.N.N.N.N.N.N.N.N.N.",
"N.N.N.N.N.N.N.N.N.N.N.N.N.* # # = C @.2.u.x.m.x.>.N ; 1 p 4 ; N.N.N.N.N.N.N.N.N.N.N.N.N.N.N.N.N.",
"N.N.N.N.N.N.N.N.N.N.N.N.0 g z a 4 7 m +.3.3.v.k., # 0 s 4 p j f N.N.N.N.N.N.N.N.N.N.N.N.N.N.N.N.",
"N.N.N.N.N.N.N.N.N.N.N.s :.j.l.w.1.[ 3 t $.7.0.b t Z L L w / <.-.: N.N.N.N.N.N.N.N.N.N.N.N.N.N.N.",
"N.N.N.N.N.N.N.N.N.N.7 E y.z.n.n.h.r.;.G V [ J B R  . . .L I ;.,.{ s N.N.N.N.N.N.N.N.N.N.N.N.N.N.",
"N.N.N.N.N.N.N.N.N.- t ! 8.9.g.M.b.s.u.' $ + n T Y U U P T n # -.e.g - N.N.N.N.N.N.N.N.N.N.N.N.N.",
"N.N.N.N.N.N.= = * - = t W &.t.h.n.c.=.9 % % 0 u u u f f u 6 # v / 5 1 p N.N.N.N.N.N.N.N.N.N.N.N.",
"N.N.N.N.N.9 ] a.p.] ` ^ 3 Z *.r.d.i.w e V S s 2 , , a V Z i , 4 t m D M p N.N.N.N.N.N.N.N.N.N.N.",
"N.N.N.N.* J r.m.M.f.y.,.d 7 o.t.' 7 U | |  .Z s p 1 M T | A a V | | | P f p N.N.N.N.N.N.N.N.N.N.",
"N.N.N.p e o.t.g.x.M.z.t.,.) r N V F R | | | R Z a 5 a M M M F T R R | R U M p N.N.N.N.N.N.N.N.N.",
"N.N.N.N.w K #.*.s.x.m.z.>.l $ O w Z S M M M D V 5 < < , 2 a D D M M M V D f 1 1 N.N.N.N.N.N.N.N.",
"N.N.N.N.N.6 C @.3.3.v.k., # a a 5 , < 5 p 5 1 1 a a a a a 1 1 5 p a 1 < 1 a a s p N.N.N.N.N.N.N.",
"N.N.N.N.N.N.; B %.7.q.x B A P L i , 2 M L L r a A L L L M < < M L L f p S K P L M 5 N.N.N.N.N.N.",
"N.N.N.N.N.N.N.6 n } H Z R  . . .Y M p M K F D K | .. . .T M 5 M K A Z K |  . . .Y V a N.N.N.N.N.",
"N.N.N.N.N.N.N.N.1 % B U L P L Y R K a , > , V T Y Y U Y R K a < , , V T Y U U U R K a 5 N.N.N.N.",
"N.N.N.N.N.N.N.N.N.; 0 h r s s a h M f o . , h u f f s a h M f o . , h u y f s a f r a a N.N.N.N.",
"N.N.N.N.N.N.N.N.N.N.p 5 5 5 5 p 5 f h X   5 g 5 5 5 5 p 5 f g X   5 g 5 5 5 5 p 5 p a N.N.N.N.N.",
"N.N.N.N.N.N.N.N.N.N.N.N.N.N.N.N.N.N.N.N.N.N.N.N.N.N.N.N.N.N.N.N.N.N.N.N.N.N.N.N.N.N.N.N.N.N.N.N.",
"N.N.N.N.N.N.N.N.N.N.N.N.N.N.N.N.N.N.N.N.N.N.N.N.N.N.N.N.N.N.N.N.N.N.N.N.N.N.N.N.N.N.N.N.N.N.N.N.",
"N.N.N.N.N.N.N.N.N.N.N.N.N.N.N.N.N.N.N.N.N.N.N.N.N.N.N.N.N.N.N.N.N.N.N.N.N.N.N.N.N.N.N.N.N.N.N.N.",
"N.N.N.N.N.N.N.N.N.N.N.N.N.N.N.N.N.N.N.N.N.N.N.N.N.N.N.N.N.N.N.N.N.N.N.N.N.N.N.N.N.N.N.N.N.N.N.N.",
"N.N.N.N.N.N.N.N.N.N.N.N.N.N.N.N.N.N.N.N.N.N.N.N.N.N.N.N.N.N.N.N.N.N.N.N.N.N.N.N.N.N.N.N.N.N.N.N.",
"N.N.N.N.N.N.N.N.N.N.N.N.N.N.N.N.N.N.N.N.N.N.N.N.N.N.N.N.N.N.N.N.N.N.N.N.N.N.N.N.N.N.N.N.N.N.N.N.",
"N.N.N.N.N.N.N.N.N.N.N.N.N.N.N.N.N.N.N.N.N.N.N.N.N.N.N.N.N.N.N.N.N.N.N.N.N.N.N.N.N.N.N.N.N.N.N.N.",
"N.N.N.N.N.N.N.N.N.N.N.N.N.N.N.N.N.N.N.N.N.N.N.N.N.N.N.N.N.N.N.N.N.N.N.N.N.N.N.N.N.N.N.N.N.N.N.N.",
"N.N.N.N.N.N.N.N.N.N.N.N.N.N.N.N.N.N.N.N.N.N.N.N.N.N.N.N.N.N.N.N.N.N.N.N.N.N.N.N.N.N.N.N.N.N.N.N.",
"N.N.N.N.N.N.N.N.N.N.N.N.N.N.N.N.N.N.N.N.N.N.N.N.N.N.N.N.N.N.N.N.N.N.N.N.N.N.N.N.N.N.N.N.N.N.N.N.",
"N.N.N.N.N.N.N.N.N.N.N.N.N.N.N.N.N.N.N.N.N.N.N.N.N.N.N.N.N.N.N.N.N.N.N.N.N.N.N.N.N.N.N.N.N.N.N.N.",
"N.N.N.N.N.N.N.N.N.N.N.N.N.N.N.N.N.N.N.N.N.N.N.N.N.N.N.N.N.N.N.N.N.N.N.N.N.N.N.N.N.N.N.N.N.N.N.N.",
"N.N.N.N.N.N.N.N.N.N.N.N.N.N.N.N.N.N.N.N.N.N.N.N.N.N.N.N.N.N.N.N.N.N.N.N.N.N.N.N.N.N.N.N.N.N.N.N.",
"N.N.N.N.N.N.N.N.N.N.N.N.N.N.N.N.N.N.N.N.N.N.N.N.N.N.N.N.N.N.N.N.N.N.N.N.N.N.N.N.N.N.N.N.N.N.N.N.",
"N.N.N.N.N.N.N.N.N.N.N.N.N.N.N.N.N.N.N.N.N.N.N.N.N.N.N.N.N.N.N.N.N.N.N.N.N.N.N.N.N.N.N.N.N.N.N.N.",
"N.N.N.N.N.N.N.N.N.N.N.N.N.N.N.N.N.N.N.N.N.N.N.N.N.N.N.N.N.N.N.N.N.N.N.N.N.N.N.N.N.N.N.N.N.N.N.N.",
"N.N.N.N.N.N.N.N.N.N.N.N.N.N.N.N.N.N.N.N.N.N.N.N.N.N.N.N.N.N.N.N.N.N.N.N.N.N.N.N.N.N.N.N.N.N.N.N.",
"N.N.N.N.N.N.N.N.N.N.N.N.N.N.N.N.N.N.N.N.N.N.N.N.N.N.N.N.N.N.N.N.N.N.N.N.N.N.N.N.N.N.N.N.N.N.N.N.",
"N.N.N.N.N.N.N.N.N.N.N.N.N.N.N.N.N.N.N.N.N.N.N.N.N.N.N.N.N.N.N.N.N.N.N.N.N.N.N.N.N.N.N.N.N.N.N.N."
};
