/* XPM */
static char *_661122498325[] = {
/* columns rows colors chars-per-pixel */
"48 48 177 2 ",
"   c #0F0A16",
".  c #110916",
"X  c #130C1A",
"o  c #17101E",
"O  c #19111E",
"+  c #1E1E18",
"@  c #332E1C",
"#  c #383616",
"$  c #1D1523",
"%  c #1E1826",
"&  c #1D1728",
"*  c #1F1A2B",
"=  c #201725",
"-  c #221926",
";  c #241C2B",
":  c #291F2E",
">  c #231F30",
",  c #2B1F30",
"<  c #2B2423",
"1  c #2A212F",
"2  c #312A25",
"3  c #362D2D",
"4  c #382F2C",
"5  c #3D3624",
"6  c #3B332C",
"7  c #2E2433",
"8  c #2A2434",
"9  c #312635",
"0  c #322937",
"q  c #3A2F32",
"w  c #342B3A",
"e  c #392F3E",
"r  c #3C3334",
"t  c #3A313E",
"y  c #433C14",
"u  c #423C1C",
"i  c #443C23",
"p  c #434007",
"a  c #4A4601",
"s  c #4D4801",
"d  c #45420C",
"f  c #4D4A0C",
"g  c #534D0D",
"h  c #565207",
"j  c #5B5503",
"k  c #5B540D",
"l  c #4D4716",
"z  c #47411B",
"x  c #4B451B",
"c  c #534F15",
"v  c #534C1E",
"b  c #575416",
"n  c #5A5616",
"m  c #5E5A16",
"M  c #555218",
"N  c #635C00",
"B  c #645E0C",
"V  c #625E14",
"C  c #6C6500",
"Z  c #67620A",
"A  c #6C6608",
"S  c #6A650E",
"D  c #726B03",
"F  c #786F00",
"G  c #756E0E",
"H  c #7D7500",
"J  c #76700F",
"K  c #7C750D",
"L  c #7F780C",
"P  c #666113",
"I  c #6B6612",
"U  c #6E6911",
"Y  c #67631A",
"T  c #726C10",
"R  c #736E1A",
"E  c #777111",
"W  c #7B751B",
"Q  c #474022",
"!  c #4A4323",
"~  c #494029",
"^  c #534C22",
"/  c #6D6929",
"(  c #716C20",
")  c #797421",
"_  c #7A773E",
"`  c #3B3240",
"'  c #423846",
"]  c #837A02",
"[  c #8B7F00",
"{  c #837C0C",
"}  c #847E1E",
"|  c #8C8302",
" . c #8C8309",
".. c #918500",
"X. c #948A04",
"o. c #998E04",
"O. c #908708",
"+. c #918808",
"@. c #9C9104",
"#. c #8E8615",
"$. c #9C9319",
"%. c #A29704",
"&. c #A69A02",
"*. c #A99D01",
"=. c #A09716",
"-. c #AEA200",
";. c #B2A600",
":. c #B6A900",
">. c #BBAD00",
",. c #B7AC0D",
"<. c #BEB100",
"1. c #BFB30E",
"2. c #8B8525",
"3. c #8C862B",
"4. c #908A29",
"5. c #9C9526",
"6. c #9C9533",
"7. c #B6AD2E",
"8. c #ADA532",
"9. c #ADA63B",
"0. c #B5AD35",
"q. c #B5AD3D",
"w. c #B9B23E",
"e. c #C2B400",
"r. c #C7B900",
"t. c #C9BA00",
"y. c #C2B611",
"u. c #C6BA15",
"i. c #C3BA31",
"p. c #CDC11D",
"a. c #D7CA23",
"s. c #DBCE25",
"d. c #E3D520",
"f. c #EEE12F",
"g. c #EFE232",
"h. c #FCEF37",
"j. c #A7A24C",
"k. c #BFB84B",
"l. c #CAC24A",
"z. c #D9D048",
"x. c #D1CA5B",
"c. c #E1D959",
"v. c #EAE04D",
"b. c #FFF643",
"n. c #FFFE4F",
"m. c #EAE15D",
"M. c #F4EA58",
"N. c #FFFF56",
"B. c #FFF65B",
"V. c #FFFF5D",
"C. c #D0CA72",
"Z. c #D5D079",
"A. c #E3DB62",
"S. c #ECE361",
"D. c #FFFF65",
"F. c #FFFF6B",
"G. c #FFFF74",
"H. c #FFFF7F",
"J. c #989781",
"K. c #B5B38A",
"L. c #C1BD83",
"P. c #FFFF8B",
"I. c #EEE99F",
"U. c #FFFF91",
"Y. c #FFFF9A",
"T. c #FFFFA1",
"R. c #F4F0B5",
"E. c #C6C8D5",
"W. c #E4E2C7",
"Q. c #FFFFC1",
"!. c #FFFFC9",
"~. c #FBF8D7",
"^. c #FFFFD9",
"/. c #FFFFE1",
"(. c #FFFFEC",
"). c #FFFFF4",
"_. c #FFFFFD",
/* pixels */
"X $ % % $ % $ $ $ $ $ $ $ $ $ $ $ $ % $ % - % O X % = % $ % % $ $ $ $ $ $ $ $ $ $ $ $ $ - ; $ $ ",
"X - w e w w w w w w 0 w w w w w 0 w w w w w 7 & $ 7 e w 0 0 0 9 w w 0 w w w w w w w w w w w : $ ",
". : ` ' t t t t t t e e t t t t t t t t ` ` 7 - - w ' e e e t ` t ` ` t t t ` t ` ` t ` ` w 1 O ",
". : ` w 1 8 7 8 1 7 7 7 8 7 1 7 1 0 1 0 7 : - = ; 0 w 9 1 7 7 7 7 7 7 7 7 7 7 7 7 7 7 7 9 : - O ",
". : e 9 : : 1 7 , 7 7 7 7 : , : 1 1 1 7 8 ; - % : 0 0 : : 7 : 7 7 7 8 , 7 , 7 7 8 1 : 7 7 ; $ X ",
". : t 0 7 9 7 7 7 7 7 7 7 7 9 7 7 7 7 0 9 : ; = ; 0 w , : 7 7 7 7 7 7 7 7 7 7 7 7 7 7 9 9 : % $ ",
". : ` 9 7 7 7 9 7 7 7 7 9 7 9 7 7 7 0 0 9 : ; = - 0 w 7 7 7 7 7 9 7 7 7 7 7 7 9 7 9 7 9 9 1 % $ ",
"  : ` 0 7 7 7 7 7 7 9 7 7 7 7 7 7 9 0 0 9 1 : - ; 0 w 7 , 7 7 7 7 7 7 7 7 7 7 7 7 7 7 9 9 7 - $ ",
". : t 0 7 7 7 9 7 7 7 9 7 9 7 7 7 7 3 6 6 4 < < ; 9 e , 7 7 7 7 7 7 7 7 7 7 7 7 9 1 9 9 9 7 - O ",
". ; ` 0 7 9 7 7 7 7 7 7 7 7 7 7 7 3 l k g g g l 2 0 w 7 , 7 7 7 7 9 7 9 7 7 9 7 9 9 9 9 9 7 - O ",
"  : ` 9 7 7 7 9 7 7 7 7 7 7 7 7 6 ^ 8.K.K.0.i.4.z 6 e 7 , 7 7 7 7 7 7 7 7 7 7 7 9 7 9 9 9 1 = O ",
"  : e 0 7 7 7 7 7 9 7 7 9 7 7 3 z #.D.(._.U.G.M.W x r 1 1 7 7 9 7 7 7 7 0 0 9 7 9 1 7 9 9 1 = = ",
". : w 7 7 7 7 7 7 7 7 7 7 7 3 v D y.F.Y.!._.R.F.M.6.^ 3 7 9 7 7 9 7 7 7 e t w , 1 9 7 9 9 1 = = ",
". ; e 0 7 7 7 7 9 7 7 9 i y y a j ..a.b.H.!.).!.x.} n u x u y 4 7 7 7 7 0 w 0 1 9 1 7 9 0 1 = $ ",
". : t 0 7 8 : 7 7 7 9 i V ( / P B C [ p.n.n.~.E.n s I U B V R ^ 3 7 7 9 9 7 9 7 1 9 7 9 9 1 = o ",
". : t 0 8 7 7 7 7 7 i V z.R.W.A.v.q.N H d.N.C._ ] o.&.*.D 3.S.q.l 3 7 7 7 7 9 9 9 9 1 9 9 1 = o ",
"  : ` 0 7 7 9 7 7 i k ,.G.R.(.(.T.D.l.#. .q.$.| >.t.r.r.&.=.l.c.q.^ 4 7 7 9 9 0 7 7 7 9 9 7 = $ ",
"  : ` 0 7 7 3 4 5 c H 1.B.V.T._./.P.H.9.d p ] ;.;.-.-.-.;.] a k.S.R z 3 7 7 9 7 7 7 7 7 9 , = $ ",
"  : ` 9 7 3 l g g h j ] 1.g.F.T.(.~.j.Z f f S K K E G U K Z s ) 3.V n ^ 3 7 7 7 7 7 7 7 9 , = O ",
"  ; ` 0 6 v 8.L.K.0.7.4.j X.h.V.I.J.D F  .O.U M n b I  .X.K n B H | X.K ^ 6 7 9 9 9 0 0 9 7 = $ ",
"  : t r z $.D.)._.P.G.c.Y C u.F.9.C -.e.r.r.o.U P m K :.r.o.P  .e.e.r.*.T ^ q 0 9 9 0 w 0 7 - $ ",
". 1 r l D u.F.Y.!._.Q.F.m.5.A 2. .@.>.e.<.e.:.o.U m T { { { @.:.<.>.>.>.*.K v 3 7 7 7 7 9 7 = $ ",
"X ; r Q Z %.s.h.P.!.).Q.x.W d # D X.O.{ { { O. .P n n b M I O.O.{ { { +.O.K n z 2 ; - - ; : - $ ",
"X $ 8 8 5 j ..a.n.n.^.E.n s A I V b n V P V m n P I I U P m m P P P m M m P I U x < % % % - = $ ",
"X o $ - 1 @ g | f.N.Z./ ..o.*.*.{ M M L &.&.G I o.*.&.&.{ m n { &.&.E P  .&.&.&.K v < - = = $ o ",
"X = 7 7 1 1 5 h ] w.#.X.>.t.r.t.;.{ P { %.@.+.%.e.t.t.t.;.{ P { %.@.O.%.e.t.t.t.;.{ v 6 7 : $ o ",
"X 1 ` t 0 0 0 ~ M f | -.&.*.*.-.>.%.U n c M  .:.;.-.-.-.>.%.I n c M  .:.;.-.-.-.>.%.U ! w 7 - O ",
". : ` 0 1 7 9 9 5 c S E T U U I E { U # + n E J T T U U E { U # + n K J G U T I G G I ! 0 7 ; o ",
"  : ` 0 1 1 9 7 7 ~ ! Q Q Q Q ! Q ^ ^ < = u x u u ! ! i Q ! ^ < - ! ^ ! ! i z i i ! ! 5 9 8 = $ ",
". : t 0 9 7 7 7 7 7 7 7 9 7 9 7 7 7 7 7 9 7 : - ; 0 e 7 8 7 7 9 : 9 e e 0 7 8 7 7 7 7 9 9 : - $ ",
". : ` 0 7 7 7 7 7 9 7 7 7 7 7 7 7 7 7 9 9 : - - ; 0 w 7 7 7 7 7 7 1 1 9 0 0 7 7 9 7 7 9 9 1 - $ ",
"  : t 0 7 7 7 9 7 7 7 9 7 7 9 7 7 7 7 9 9 8 ; - ; 0 w 7 7 7 9 7 7 9 9 : 9 0 9 7 7 7 7 9 9 8 ; O ",
"  : t 9 7 7 7 7 9 7 7 7 7 7 7 9 7 7 7 9 9 , ; = ; 7 w 7 7 7 7 7 7 7 7 9 7 7 9 7 7 7 7 9 9 7 - O ",
". ; ` 0 9 7 7 7 7 7 9 7 7 9 7 7 7 8 7 9 9 7 ; - ; 9 w 7 7 7 7 9 7 7 7 7 9 7 7 0 , 8 7 7 9 1 - O ",
"  : ` 9 7 7 7 7 7 9 7 7 9 0 9 7 8 7 , 9 9 7 ; = : 0 w 7 7 7 7 7 7 7 7 7 7 7 7 0 7 8 8 9 9 8 - $ ",
". : ` 0 7 7 9 7 7 7 7 9 0 7 1 1 7 7 9 9 9 , - = - 0 w 7 , 9 7 7 7 7 9 7 7 7 7 7 7 7 : 9 9 7 = o ",
". ; ` 0 7 7 7 7 7 7 9 0 7 - ; 0 0 7 7 9 9 7 ; = ; 0 w , , 9 9 7 7 7 7 9 7 7 7 7 0 7 7 7 9 , = $ ",
". 1 ` 0 , 7 7 7 7 7 9 1 % - 1 0 9 7 9 9 9 1 - = * 0 ` 7 , 7 7 7 7 9 7 7 7 7 7 9 7 7 7 1 7 : = $ ",
". : t 0 7 : 7 7 9 0 7 ; - 1 9 9 9 7 7 9 9 : ; = ; 0 w 7 7 9 7 7 7 7 9 7 7 7 7 7 7 7 9 9 1 : O $ ",
". : e 0 8 , 7 7 9 0 7 7 9 9 7 7 7 7 7 9 9 , ; = ; 0 w 7 7 7 7 7 7 7 7 7 9 7 7 7 7 7 9 9 9 : O $ ",
"  : ` 0 1 7 9 7 7 7 7 9 9 9 7 7 7 7 7 7 9 1 ; = ; 9 e 7 7 7 7 7 9 7 7 7 7 7 0 7 7 7 7 0 7 ; $ ; ",
"  : ` 0 9 7 9 9 7 7 7 9 9 7 7 7 7 9 9 9 9 7 ; = ; 9 w 7 7 9 7 7 7 7 7 9 7 7 7 7 7 7 7 9 9 1 = : ",
"  ; t w 9 9 9 9 7 7 9 9 9 9 0 9 9 9 0 0 0 , : = ; 0 0 7 : 7 7 7 7 7 7 7 7 7 7 7 9 7 7 9 9 1 = - ",
"  : e 9 7 7 7 8 7 7 7 7 7 7 7 7 7 7 7 9 9 : = = ; 0 ` 9 7 9 9 9 9 0 9 9 9 0 7 0 0 9 9 0 0 7 - O ",
". 8 e 7 1 1 8 8 1 8 8 8 7 7 7 8 8 1 1 7 8 7 : ; : w ` , , 9 7 7 7 7 7 7 7 7 7 7 7 7 7 7 0 7 - $ ",
". 8 t 7 : 8 8 1 1 1 8 1 1 1 1 1 1 8 1 1 8 7 7 7 : 7 9 ; ; : 1 1 8 1 1 1 1 1 1 1 8 : 1 : 1 1 ; - ",
"X - > * & ; ; ; 1 * ; > ; ; ; * ; ; ; ; ; > ; - & * * & $ % * & $ % $ % & * * $ & & $ & * ; % $ ",
"X X o $ $ o $ % % $ $ $ $ - - % = - % - ; - - = o % - - - = % & % % - ; - $ $ $ $ $ % = % $ O O "
};
