/* XPM */
static char *_661120225205[] = {
/* columns rows colors chars-per-pixel */
"48 48 35 1 ",
"  c #3E2F28",
". c #3F3029",
"X c #40312A",
"o c #42312A",
"O c #41322B",
"+ c #43322B",
"@ c #42302C",
"# c #43312D",
"$ c #42302E",
"% c #43312F",
"& c #44332C",
"* c #44322E",
"= c #4A3B34",
"- c #4B3C35",
"; c #4C3D36",
": c #503F38",
"> c #513F3B",
", c #4F4138",
"< c #514039",
"1 c #504239",
"2 c #52413A",
"3 c #51433A",
"4 c #51423B",
"5 c #53423A",
"6 c #53423B",
"7 c #54433B",
"8 c #52443B",
"9 c #52403C",
"0 c #52433C",
"q c #53453C",
"w c #53443D",
"e c #55443C",
"r c #56453D",
"t c #54463D",
"y c #54453E",
/* pixels */
"                                          oOOX  ",
"------------------------------------------------",
"888888888883888888888833888888888888888888888888",
"3333333333333333333333333333333333383333,88,3,33",
",3333,3,<3,33<<<3,3<3,3<,3<3333,3,3,,<<<,8<,,,3<",
"33333333333333853333333333333333<8338383,,<83,33",
"355555355555355535553555355555355555355587778777",
"555555555555555555555555555555555555555577tr7r77",
">5>5>5>53>5>>5>5>55>5>33<555<<<5>53>55>5:<:>:3::",
"++++++++++++++++++++++++ooo&&&+&++o++++++++++++*",
"oooooooooo+ooooo+ooooooooooooooooooooooo++++++++",
"++++++++++++++o%+++++++@&o&o+++++++++++++++++++*",
"oo@@@@@@ooo%o@oooo@@@@@@@@@@ooo@@@@@@@@%+*o@@@@@",
"************%%*%***********************%*****%**",
"%%%%%%%%%%%%%%%%%%%%%%%%%%%%%%*%%%%%%%%%$$@@$$$@",
"%%%%%%%%%%%%%%%%%%%%%%%%%%%%%%%%%%%%%%%%%%%%%%%@",
"@*@*@*@*@*@*@*@*%%o%*@*@*@*@*@*@*@*@*@*@*@*@@*@*",
"****************************************@*@****@",
"*@*@*@*@*@*@*@*@o%o%*@@**@*@@**@@@@@@@@@@@@@@@@@",
"@@@@@@@@@@@@@@@@%o%o@@@o@@@@@@@@@@@@@@@@@@@@@@@@",
"oooooooooooooooooooooooooooooooooooooooooo+ooooo",
"6666506666660056>>535553665366665066663066>35553",
"333333333333333358838888333333333333330333,33,3,",
"3,33,3,,:333,3,3<<<3<,,,333,,333,3,:333,3,3,3>,3",
",3,3,3,33,3,3,3,,3,33333;33,3,,,,3,3,3,33,3,3,3,",
"3,3,3,3,,3,3,3,33,3,3,3,;3,3,3,,3,3,3,3,,3,3,3,3",
",3,3,3,33,3,3,3,,3,3,3,333<,,3,3,3,3,3,33,3,3,3,",
"3,3,3,3,,3,3,3,33,3,3,3,33,33,3,3,3,3,3,,3,3,3,3",
",3,3,3,33,3,3,3,,,3,,3,3,33,,3,3,3,3,3,33,3,<,3,",
"3,3,3,3,,3,3,3,3,3,3333,33,33,3,3,3,3,3,,3,3<3,3",
",3,33,,3,,,33,:,3333338803333,,3:,3,,3,33,3,3:5>",
"03>33333030,00333333wwttww333333330333333338335>",
">0>3>>>>>>>>>>>>>>>:>>>>>>>>>>>>>>>>>>>>>>>>>>>>",
"@@%%*@*****o****************@******&@*****@*****",
"ooo%@@@@o@@@@@oo@@@@o@@@@@oo@@@@@@*o@@@@*o@@@@*o",
"%%%o*@*@**o**o***@*@*o*@@*o*@*@*o*o*@*@**o*oo*o*",
"o%o%@@@@@@@@@@@@@*@**@*@@@@@@@@@@@@@@@@@@@@@@@@@",
"%%**********************@*@*@*@*****************",
"o%oo%o**@*@*@*@*@@@@@@@@*@*@*@*@*@*@*@*@*@*@*@*@",
"%o%%o%%o*@*@*@*@*@*@*@*@@*@*@*@*@*@*@*@*@*@*@*@*",
"@*@*@*@*@*@*@*@*@*@*@*@*@*@*@*@**@*@*@*@*@*@*@*@",
"*@*@*@*@*@*@*@*@*@*@*@*@*@*@*@*@@*@*@*@*@*@*@*@*",
"@*@*@*@*@*@*@*@*@*@*@*@*@*@*@*@**@*@*@*@*@*@*@*@",
"*@*@*@*@*@*@*@*@*@*@*@*@*@*@*@*@@*@*@*@*@*@*@*@*",
"@*@*@*@*@*@*@*@*@*@*@*@*@*@*@*@**@*@*@*@*@*@*@*@",
"*@*@*@*@*@*@*@*@*@*@*@*@*@*@*@*@@*@*@*@*@*@*@*@*",
"@*@*@*@*@*@*@*@*@*@*@*@*@*@*@*@**@*@*@*@*@*@*@*@",
"*@*@*@*@*@*@*@*@*@*@*@*@*@*@*@*@@*@*@*@*@*@*@*@*"
};
