/* XPM */
static char *_661122439817[] = {
/* columns rows colors chars-per-pixel */
"48 48 34 1 ",
"  c #0F0A16",
". c #110916",
"X c #130C1A",
"o c #17101E",
"O c #19111E",
"+ c #1D1523",
"@ c #1E1826",
"# c #1D1728",
"$ c #1F1A2B",
"% c #201724",
"& c #221926",
"* c #241D2B",
"= c #291F2E",
"- c #280334",
"; c #251F30",
": c #2B1F30",
"> c #27212F",
", c #29212E",
"< c #252031",
"1 c #2D2433",
"2 c #2F2836",
"3 c #312635",
"4 c #322837",
"5 c #342B3A",
"6 c #392F3E",
"7 c #3A313E",
"8 c #3F084D",
"9 c #3B3240",
"0 c #480C59",
"q c #423846",
"w c #440965",
"e c #782581",
"r c #B46DBA",
"t c #D8AAD8",
/* pixels */
"X+@@@@++++++++++++++%&%OOO%%%%++%O%%%%%O%++O&&&O",
"X&56555554555555555556:&%175444447454455555555,O",
".=9q7777676677777777764:&6q7777777777777777q76,O",
".=951<1113,3,111,1,23:&4&55:,13,1111111121,21,%O",
".=63==1:=3,=:=:=,,:::=000eeeweeee00111,1,,::3=%O",
".=641131,333333:34343:000eeeeeeee001111111:33,&O",
".=94131111313131weq500weerrttttrree0011e06533:&%",
" =6411111111113=ee7600eeerrttttrree0011eeq333:&O",
" =743,3331111133ee00ee000eeeeeeee0088ee001133:&O",
".*94113=111311,3ee00ee000eeeeeeee0088ee0033331&O",
" =941133131131110000000000000000000880080,333,%O",
" =6433=,3,3111138800000000000000000880080,133:%%",
".=541113=31111=3111400------0------8075:,1143,%%",
" *64113,1333=333111100-----------8-08541,,113,%%",
".*741,3113,=311,111400000ee----ee0088,1441143:%O",
".=75:<1111333113111100000ee----e0008011411113:%O",
" =9411413111141141110000000----08888814441143:&+",
" =7411111111111111140000000----88888015q11113:%+",
" =6411111111111111008888888--eeeeeeeweeee00000&O",
" &6544443433444544008888888:-eeeeeeeeeeee00000&O",
".=6511143444111100ee000008888eerrttrrrreeee000&%",
"X<6&@&*&&&*&***&00e0800008888eerrttrrrreeee000&O",
"X=5<*=>>===,=,==00rree000ee88eettrree0000ee000&%",
"X%,<>>>>===>====00rree000ee88eettrree0000ee000&+",
"Xo+&$@+&%%%%%%++00rree000ee88eettrree0000ee000+o",
"X&11rrttttrreeee0000rreee0000eerreeee0000ee000+X",
".,97rrttttrreeee0000rreee0000eerreeee0000ee000&+",
".tttttttrrrrrree00rree000ee8800rreeee0000ee000*X",
".tttttttrrrrrree00rree000ee8800rreeee0000ee000&+",
".:74weeeee00ee0000ee88eee880000eeeeee0000ee000&+",
".=74eeeeee00ee0000ee88eee880000eeeeee0000ee000&+",
".=74445q3:3:www0008800888008800eeeeee0000ee000*o",
".=6411113113wwwwww8800888008800weeeee0000ew000=O",
".=7413wwwwwwwwwwww888888888wwww0000ee0000083q4&O",
".=7431wwwwwwwwwwww888888888wwww0000ew000000331&O",
".=74wwwwwwwwwwww00000088888wwww800000888000331&O",
".=75wwwwwwwwwwww00000088888wwww8008008880ww33:&+",
".=743==3134,+%ww888888888wwwwwwww-8888888ww:::%%",
".*74:=31331&%=ww888888088wwwwwwww008888880031&O%",
".=641=11343,3331wwwww0wwwwwwwwwwww00wwwww:143=O+",
".*641,3311133311wwwwwwwwwwwwwwwwwwwwwwwww1141=+&",
".=9531333,1331311333wwwwwwwwwwwwwwwww11111133:&*",
".*753343334333334445wwwwwwwwwwwwwwwww31111144<&&",
".=641,,11,,331,11<111=%%*49311443334344433144:@+",
".171<111,11<=1,11,111<=**591:41111111111111141%+",
".<71;<<1,1<;,1,,>1,,,121:11**==,=,,,<:,,<<:==1&&",
".$<$#***>**;*****$***<*&$&$#+#@@@@+@#&@@$@##$*#@",
"XXo++o+@@+++@@&@&&@&*&&%o%&&&&@$@@&*&+++@+@%%oo+"
};
