/* XPM */
static char *_660923925792[] = {
/* columns rows colors chars-per-pixel */
"48 48 10 1 ",
"  c black",
". c #38002C",
"X c #222A5C",
"o c #158968",
"O c #663B93",
"+ c #566A89",
"@ c #5BECF1",
"# c #8BABBF",
"$ c #FFDBA5",
"% c None",
/* pixels */
"%%%%%%%%%%%%%%%%%%%%%%%%%%%%%%%%%%%%%%%%%%%%%%%%",
"%%%%%%%%%%%%%%%%%%%%%%%%%%%%%%%%%%%%%%%%%%%%%%%%",
"%%%%%%%%%%%%%%%%%%%%%%%%%%%%%%%%%%%%%%%%%%%%%%%%",
"%%%%%%%%%%%%%%%%%%%%%%%%%%%%%%%%%%%%%%%%%%%%%%%%",
"%%%%%%%%%%%%%%%%%%%%%%%%%%%%%%%%%%%%%%%%%%%%%%%%",
"%%%%%%%%%%%%%%%%%%%%%%%%%%%%%%%%%%%%%%%%%%%%%%%%",
"%%%%%%%%%%%%%%%%%%%%%%%%%%%%%%%%%%%%%%%%%%%%%%%%",
"%%%%%%%%%%%%%%%%%%%%%%%%%%%%%%%%%%%%%%%%%%%%%%%%",
"%%%%%%%%%%%%%%%%%%%%%%%%%%%%%%%%%%%%%%%%%%%%%%%%",
"%%%%%%%%%%%%%%%%%%%%%%%%%%%%%%%%%%%%%%%%%%%%%%%%",
"%%%%%%%%%%%%%%%%%%%%%%%%%%%%%%%%%%%%%%%%%%%%%%%%",
"%%%%%%%%%%%%%%%%%%%%%%%%%%%%%%%%%%%%%%%%%%%%%%%%",
"%%%%%%%%%%%%%%%%%%%%%%%%%%%%%%%%%%%%%%%%%%%%%%%%",
"%%%%%%%%%%%%%%  %%%%%%%%%%%%%%%%%%%%%%%%%%%%%%%%",
"%%%%%%%%%  %%% o %%%%%%%%%%%%%%%%%%%%%%%%%%%%%%%",
"%%%%%%%%% o    oo %%%%%%%%%%%%%%%%%%%%%%%%%%%%%%",
"%%%%%%%%%% oooooo %%%%%%%%%%%%%%%%%%%%%%%%%%%%%%",
"%%%%%%%%% ooooooo %%%%%%%%%%%%%%%%%%%%%%%%%%%%%%",
"%%%%%%%%% oo$$$$ %%%%%%%%%%%%%%%%%%%%%%%%%%%%%%%",
"%%%%%%%%% o$ OO  %%%%%%%%%%%%%%%%%%%%%%%%%%%%%%%",
"%%%%%%%%%% $ OO  %%%%%%%%%%%%%%%%%%%%%%%%%%%%%%%",
"%%%%%%%%%  $$$$$  %%%%%%%%%%%%%%%%%%%%%%%%%%%%%%",
"%%%%%%%% ##+$$$$#+ %%%%%%%%%%%%%%%%%%%%%%%%%%%%%",
"%%%%%%% ##########+ %%%%%%%%%%%%%%%%%%%%%%%%%%%%",
"%%%%%%% ##+###@@##+ %%%%%%%%%%%%%%%%%%%%%%%%%%%%",
"%%%%%% +++X+##@@#+X %%%%%%%%%%%%%%%%%%%%%%%%%%%%",
"%%%%% ++  XX++@@+X %%%%%%%%%%%%%%%%%%%%%%%%%%%%%",
"%%%% ## % X++XXXX+ %%%%%%%%%%%%%%%%%%%%%%%%%%%%%",
"%%%% ## % X++++X++ %%%%%%%%%%%%%%%%%%%%%%%%%%%%%",
"%%%% + %%% X+++X+X %%%%%%%%%%%%%%%%%%%%%%%%%%%%%",
"%%% + %%%% XXXXXX X %%%%%%%%%%%%%%%%%%%%%%%%%%%%",
"%%% + %%%%% XXXX  X %%%%%%%%%%%%%%%%%%%%%%%%%%%%",
"%%% #   %%%% .. % X %%%%%%%%%%%%%%%%%%%%%%%%%%%%",
"%%% ### %%%  ..   XX %%%%%%%%%%%%%%%%%%%%%%%%%%%",
"%%% ## %%% ##+++++XX %%%%%%%%%%%%%%%%%%%%%%%%%%%",
"%%%% # %% ###+++XXX  %%%%%%%%%%%%%%%%%%%%%%%%%%%",
"%%%%%  %% ##+++XXXX %%%%%%%%%%%%%%%%%%%%%%%%%%%%",
"%%%%%%%%% +++X  XXX %%%%%%%%%%%%%%%%%%%%%%%%%%%%",
"%%%%%%%%% +++ % XXX %%%%%%%%%%%%%%%%%%%%%%%%%%%%",
"%%%%%%%%% +++ % XXX %%%%%%%%%%%%%%%%%%%%%%%%%%%%",
"%%%%%%%%% ### %% XXX %%%%%%%%%%%%%%%%%%%%%%%%%%%",
"%%%%%%%%% ## %%% XXX %%%%%%%%%%%%%%%%%%%%%%%%%%%",
"%%%%%%%%% ++ %%% XXX %%%%%%%%%%%%%%%%%%%%%%%%%%%",
"%%%%%%%% XXX %%% XXX %%%%%%%%%%%%%%%%%%%%%%%%%%%",
"%%%%%%%% XXX %%%% XX %%%%%%%%%%%%%%%%%%%%%%%%%%%",
"%%%%%%%% XX %%%%% XX %%%%%%%%%%%%%%%%%%%%%%%%%%%",
"%%%%%%%% .. %%%%%     %%%%%%%%%%%%%%%%%%%%%%%%%%",
"%%%%%%%% .. %%%%%     %%%%%%%%%%%%%%%%%%%%%%%%%%"
};
