/* XPM */
static char *_661091083251[] = {
/* columns rows colors chars-per-pixel */
"48 48 38 1 ",
"  c #050B0D",
". c #0B0E0F",
"X c #0C0F10",
"o c #0F1112",
"O c #131414",
"+ c #181616",
"@ c #191817",
"# c #1B1718",
"$ c #1D1B1A",
"% c #221C1B",
"& c #26201E",
"* c #29211F",
"= c #272522",
"- c #2D2422",
"; c #2E2A26",
": c #312624",
"> c #342926",
", c #392A27",
"< c #352E29",
"1 c #3E2D29",
"2 c #36302A",
"3 c #3D332D",
"4 c #402F2B",
"5 c #43322D",
"6 c #49342F",
"7 c #463630",
"8 c #4A3731",
"9 c #443932",
"0 c #4C3B34",
"q c #513E36",
"w c #4F4037",
"e c #4E4138",
"r c #514037",
"t c #54433A",
"y c #59463C",
"u c #57493E",
"i c #5B493F",
"p c #5D4B40",
/* pixels */
"51>,$O-73::--14:,7,#O-41:::::::,;o@1t5-:::>:>1$O",
"e511%#>08,17>79,707$#>00,3951,,7>X$1633853035e-+",
"t078%#1qw50050q10y8%O1re40q>144t9o%6957u08t08p<o",
"t068%+4te50e40q70y8%+1yq7q9O*54t9O%0t87t09t00p<o",
"t056-#,r050050r60y8%+,qe48: %04q9o$8u07t07t00p<+",
"t866%#1t050e500:7y8%+1yr55>#3q809o$8u95t97r08p;+",
"u866%#1q059w505O-y0%#1qq74110q509o$8t06t05r98p:@",
"u08t;O1re55858>.;p8%#1074144774q0o%8u06u07y00y;$",
"e68u2O1tq51546: -y8%+4844771414qeo$0y06r07t08i;$",
"538t<O,rr51455:O<y0%#16410q4411q9o@8y04137t88i;@",
"5188:O1rr514451:7t8%#16140q404900o@0ur>@*665qi;O",
"3566%O1t04554554et8%#18710q40000wO%0ur: %5540i<O",
"5565&O1rw59058050t8%+1q040q4q000wo$7rr:O&5518i<@",
"5466%O1r068r30w5500%O1qy9qq4q907ro&6084>,441qi;@",
"5468-#1t059e40e5468%+1y0:7q40078wo%5555555550i;@",
"446u;O1rw58e48e5488%O1y3X;q4q908ro%5545557r88u;@",
"447p;+18730q10q45q8%@1y3 =t5r080eo%5556w77t98i;@",
"417p<O18110e30058y8%O1y9#;8500685O&9518u06t7wr2O",
"440q<O17140040058t8%#1rw51340r96,X;r515r97t7wr2o",
"110q3X,7410q1q077y8%@58865110t86-o;t545557t7r03X",
"740q3o90410q4q977t8%#1545444w0>3:.:t615756t7w93X",
"t7q02oqq140q3q007t8%#5854541r9O*>.<t5,7t75t7r73X",
"p087-Oet110q4q707u8%$e041883r3 %:o;t6,7t05t5r83X",
"q855&Opt110q1q905t8%$tt1100509$:>o;r619t07t70t2@",
"e045*#tt140q4e706u6%$tr410w58w183o;t6,7t08u80t<@",
"e048%%ty41004q095t8%&tr450048w7r9o;t616t88ir80&$",
"t048&$0q11q010079t8%$er410w30w609o-w6,9u093966%$",
"e040&#4931qe5q077y8$$tr158w500709o&6516tr:O-88%$",
"r046%+1714rt50038t8%$ut1366556583O%551558:o%88%&",
"yq46&+10657550q10t8%$tt311545356,X%685368:o&88%&",
"t048%O1qr8%%1rw58y8%$wr555454535>O&8t86rr:.%88&$",
"p058-#1qy8%O1te58t6%@68708544445>o$8u09tt- $88&$",
"0965*O1ry6%O1q850t8%#168t05575581o$8t06uw>#-66%$",
"7365*O,rt6%@16510y8%#156tw1,08509o%8u85t011366%$",
"5465:O1rr5::,5,10t8%@,59yr:O3r5q9o%8u99t0540r8%#",
"5465*O1rr55646510y8%#966tr* ;r5q3O$8u86tq110t8%#",
"4564:O1q048e48w38t0%$eq7tt:o-r5q9o%8t06r0140y8%$",
"5455*X1tw30058t5588%$tq7tr1:,65r9o%8ur667510t8%#",
"4698*O1r050w5605159%&er6q9586410eo$0i9,55440t8%#",
"18t8%#1qq4005355568%$ur1556t944q9o$0i<@46450t8%@",
"50y8%+1ye50q51118r6%&tt5117u8440ro%qi;O38140u8%@",
"50t8%+1q850r51410t8%$005637t8540rX#qp;+16438q8*O",
"10u8%#18310e51410u8%#366r95t9540wo%qp:O1851586*O",
"59t8$#15110q57750y8%@358u86t6510eO%ri=O,q85555-O",
"59t8%#10419q10077t8%@157t09t7518to$qp2$,rr5565-O",
"48y8%+1r07004q077u8%@468t06e6558eo%8t8110w5565-o",
"58y8%+1tq70q10977t8%@557t0365130eo%68653985455:X",
"58t8%+,t019q50006y8%@167u0115150to%54545555465:o"
};
