/* XPM */
static char *_661093815628[] = {
/* columns rows colors chars-per-pixel */
"48 48 53 1 ",
"  c #06010B",
". c #08030E",
"X c #0C0512",
"o c #0F0915",
"O c #0F0918",
"+ c #110B16",
"@ c #140D1A",
"# c #180F1B",
"$ c #16101C",
"% c #19121E",
"& c #1C1523",
"* c #1F1825",
"= c #201726",
"- c #221A26",
"; c #201728",
": c #241B29",
"> c #291F2E",
", c #27202C",
"< c #29212E",
"1 c #2E2533",
"2 c #2E2833",
"3 c #312635",
"4 c #332A36",
"5 c #322738",
"6 c #362D3A",
"7 c #382E3B",
"8 c #3B313E",
"9 c #3A2E41",
"0 c #3E3242",
"q c #3F3548",
"w c #423545",
"e c #443846",
"r c #443649",
"t c #463A4A",
"y c #493C4D",
"u c #473C52",
"i c #4B3E51",
"p c #4D414F",
"a c #4E4152",
"s c #524455",
"d c #554659",
"f c #56495A",
"g c #594A5D",
"h c #5E4D62",
"j c #5F5064",
"k c #614F64",
"l c #625265",
"z c #65546A",
"x c #69566D",
"c c #6A586E",
"v c #6B5670",
"b c #695971",
"n c #715D75",
/* pixels */
"#$&-=*::;:::::;;:;::;:;:;:::*&*;=;;&&=*:&&&&&$$+",
"@&,0tyiaiiuuuuuuytqq090rrutqqrqtyiiiiiyyiytup8,$",
"#&1szlsiyiyyyyiyue99790ttttr0090wetyyyyytyddgf7#",
"@&1yzs,$++o+OOoo++O@@@$%$$@+++ooooO+++@@+&16yd7$",
"+$1ply$ X#======&::><3455133111543<>>-::&+@:es7+",
"+$1pjt$%5wyiteeettyyysdsdddsddddgggdsysdu1+:ys6+",
"+#1ake$<isspytttyyeerreewreeetuyyiyssiflh9%:ys7+",
"+#1ahe%4syw08888778646666666667777770wesge&>ys7+",
"+#1akr&1t744464466741346656666666644434ese%,yd7+",
"O$2akt=1r6667677678864786666766667678340sy*,td6+",
"O$2akr;<w767777766670808777777777778846esi&,tf7#",
"O$1aky;3w767767776360w087777767777766660at%,tf7@",
"O$1pgy-4e7677777771160867668777777776660ii&:yf7@",
"o$1ake-4t7677777881>40867866767776776668yi&:yf7@",
"o$2she=4t7677767881:3ww66777676777777660ya&*tf9$",
"+$2ahe;5t7477777784:<ww67777777777767660yy%:tf7$",
"+$3pke=3p7477777888130w77777767777767678ye%-tg7@",
"o$3ske&3e8777777780760877777777776776678ee%:th7#",
"+$1pkr%3e8677777778080776776777777777668ee%:tf6#",
"o$3ikr#1y7467777677887777777776777777668te%:th9#",
"+$1ahw#3y7126788777666777777767777777670ye$-yl0@",
"+$3akw%3y7111888777777777677777644777670t0$*yxe+",
"+$1ahe#1y87778w8677776777777777677777678tr$*pxe@",
"+$1shw%1e8888w87677887777777777777777678t0&*pxr+",
"O$1sh0#1e7678877777877777777777766678778er%-izrO",
"o$4ah0+1p8677777777777777777777766680867e0&-yvw@",
"+$1dg9#<p8777777777777677877777776888668w0%-azw+",
"+$4sg9+1e8678777778886677887777778888688e0%*yxr#",
"+$2ag7@>ew477777777807777877777778676688ew%-izr+",
"O$5dg6#>e8777777777807777777777777646468rr*:yvr+",
"O$3sg6@>tw7477777877777777777777663677678w-,ivrO",
"o%4sd6+>e87777778777777777767777888778888w::izr@",
"o$4sd5+<r076777777677766868666886880w777ww=:yxe+",
"o%4ad5+,tr76777777778686676886666800r877t7&:pcr+",
"o$3sd5+,ye634666666666666666686666667647t7%-ivr+",
"o$3sg6o1dsr6868666667866766866866767777ey7#-ixrO",
"O$3sh7o:dzdeeyyyyyere0088888880080wwweyfd7#-icr+",
"O$2ske+&wddyyyyeteettrrqeer0we0etpyasyigd7%:inr+",
"o$2akt#X*,3343<<<<<3156746454678888641444:&:ivr+",
"o$3aky&Xoo+++#+++++$$$#@$++##$$$++oXX.X.X+%:yxr+",
"o%1ygu:;,,><<<111:;;1>>:;;&;>;=#&:>>;:&&=-><ynt+",
"+$1akhtyfddfsdhjhddddssiiruiiitwtdhhhddsssytgnt+",
"+@1dnnhklklljjlxvvvvllzzkzzzzzzvvbbcccvvcxxlxv0+",
"+$9zkrrrw888970099w99900wwww9wwrrr000rrrwe0eyy3#",
"+:yi5O#%$$$@@#@#@@@@@@@@O@@@#@@@$$+@@@@@####=::#",
"+4w;OXO@@@@@@+O@@@@@@@@@@O@@@@@@++@@O@O@O@OO##%#",
"@:>OOO@@@@@@@@$@@#@@@@@@##@##@####$$@@@@#@#@@#%#",
"@OOO@@@@@$$@@$@$@##@@@@@@#@@@@##@###$###@##@#@##"
};
