/* XPM */
static char *_661090454304[] = {
/* columns rows colors chars-per-pixel */
"48 48 47 1 ",
"  c #322F34",
". c #343135",
"X c #3D3537",
"o c #3A373C",
"O c #3B383D",
"+ c #423B3F",
"@ c #3E3B42",
"# c #413E45",
"$ c #454045",
"% c #45434A",
"& c #4A464D",
"* c #4B484E",
"= c #494750",
"- c #4D4B53",
"; c #514E56",
": c #514F58",
"> c #535056",
", c #55535C",
"< c #58565F",
"1 c #5A585F",
"2 c #565661",
"3 c #595760",
"4 c #5D5B64",
"5 c #5F5D68",
"6 c #605E66",
"7 c #615F69",
"8 c #64636C",
"9 c #68666F",
"0 c #656570",
"q c #696770",
"w c #6D6B74",
"e c #6E6D79",
"r c #706E76",
"t c #716F79",
"y c #727077",
"u c #74727B",
"i c #78767E",
"p c #79787F",
"a c #767480",
"s c #797781",
"d c #7C7A84",
"f c #7F7D88",
"g c #817F8A",
"h c #84828D",
"j c #868491",
"k c #888692",
"l c #8A8894",
/* pixels */
",ukkkfwakjkgtdd3wkkkdeikhkgrdg7:8hlkksuhkkldpkw7",
"3tfduwwuddsq6tt4qffuwwuddaq6tu5,8sgsewysdst8wsw4",
",8ew8quuww837rw37ww88uuwe837we7,4weq7quwwq44quq4",
"&,55qupw5448tp9&:54qisw7648tpr7--579upt7444quu84",
"@%*=>,;--==-,8,.o==:>*=--=;,674*@&=-1>*=--=;4644",
"<4,-,-OO-23,,41%=23,-&&=-:,>49742,2,;*%&=:<,4886",
"hlfeds4;9gkhkpuhjkkspht,,thhhgwpkhkdesa5:0gkhkdr",
"hht9sd84qhlgiruhkgdwtku44tkkstrshhfu9pd84qglfutt",
"e847wr6,5eyw8wuww9449tq3,8ee89yuee846ww6,5wuq8qu",
"848yiw6--778yie84649uiq,&,55qupw7548riw5--679yuu",
":-->584=OO#;4;&--&&;677:@@@&>44*#&=->584=@O%-,<4",
"&>,,6974>%-,;*%&:,,,,6804=&-,>*##,3,<4897>**>1:=",
",uhhkdepkhhfesu3wjjjsrpkjjswdd4:8gkjhpuhkkjaijt2",
"4akhdtrshkgr9ss6ejjdtrpgjgu9sd74whkgatugjhdwuhu4",
",8ew99uuew847rq<7tw89uuwr847wr524wrq8wuww8549y93",
"%2550isw6548ys9*:77qisw6448rpe7:;678tpt75540uu94",
"@%=*>,---===>84#o@&,>*----->684#o%=-3>*---=;4654",
"<4,;,-O@-,2,,451=&<,-&%-=:,,7q8:=>3,;=%==;,,3086",
"hlfwfs4-0hkjhiuhjjksiht,,tjhkfeighkdrss4>8hkhkse",
"hht9sd84whlfiuuhjgdwtku44ukhstrskjft9sd83whkfuyr",
"e847wr6,4etw8wywwq449u9<,8re99uuww846wr724wtw80i",
"658yiw6;-778uie8444quuw,=>679ipw5748tpw7--489tiu",
":-->484-@O#-4>&--==;488-.o==>,-*-==->683=@=#%>44",
"=>,,5974;%-<;&%&:,,,,494&-,;<-o@-<3><48q534=$,>=",
",uhhkfwahhhgrsu3wjjjswskhjfess4:0gkjjauhjjjaajt,",
"4akhdeyskkgt9ss7ekhdurshkgt9pd84qhlgutugjgdwtgt6",
",8ew99uuww747r9<7rw99uuwe847wr5,4wtq8wuwrq44qu94",
"&,559ipw5748ts9&:769ppw7546ype7-;680upt74669ui94",
"@%*=:,-*-==-,74@o@&,,**---->484=+X#-1:=---=;3773",
"14,-,-o#;3,,,474=&,,-%&*=:<,6974:&-3:&&%=;2:3q96",
"hlfeds4>0gkjkiuhgjkdaht,,thhjfwpjgggrsa4:qglglsr",
"hht9ss84qhkfatahkgdwtja44ukhdtrsjlgt9sg74qglgutt",
"e846wr6>5wu08wuwwq63qtq3,7tr99trrr747rr6,4wtq8qu",
"848uiw8--679uiy5464quuw,=,769isr6647rpr6-;789tui",
"--=,485=@O$:1>*=-==;697= X==:,;--==-,684=@O#-<11",
"=,,>5884>%-,>*%%;3,,,3q6%;,:,-o@;33><37q7:&&>3:=",
",uhhkfwshhkdesu2egjgsrsljjgrss4:0gkjjaugjkjsskt3",
"4akhserskkfe9id8tgkgursgjgtqsd74wgkgatugjhdwthu4",
",8ew99uuww846ew,7rr99utwr747rr6,4wtq7wurw9449uq4",
"&,55wupw5548ui9&;769isw6647tpr6-;77qupr75449uu84",
"##==;,-=-&&=,84@o##,,&=;;-;,676&@O#;1:&=--=;<764",
"33,;,;o#-,2,,554--23-&%==::,6966:#;,:&&&=;<,4886",
"glgrds4:qgkjkiuhgjjsigt,,rjgjgqihgjgrsa6,0gkhksr",
"jjt7ig84whlfuyuhlgswtji65tkgdrrgjlgt9sg73qhkfuer",
"r947wr6:4wrq8wuwwq639tq227tr89uyrw747rr724wuw7ws",
"767tir7;;789usu5674quuw2=:769upr6648tir6;-478utd",
":,37qr0,=%-484:,,,,39rr2@%:266,:,,,37qw8,-,--608",
"&*&&>16:%X+&&#X%*&&&-:3;Xo&&&#+#***%#>61:=&++&*#"
};
